<?xml version="1.0" encoding="utf-8" standalone="no"?>
<!DOCTYPE svg PUBLIC "-//W3C//DTD SVG 1.1//EN"
  "http://www.w3.org/Graphics/SVG/1.1/DTD/svg11.dtd">
<!-- Created with matplotlib (https://matplotlib.org/) -->
<svg height="540pt" version="1.1" viewBox="0 0 1080 540" width="1080pt" xmlns="http://www.w3.org/2000/svg" xmlns:xlink="http://www.w3.org/1999/xlink">
 <metadata>
  <rdf:RDF xmlns:cc="http://creativecommons.org/ns#" xmlns:dc="http://purl.org/dc/elements/1.1/" xmlns:rdf="http://www.w3.org/1999/02/22-rdf-syntax-ns#">
   <cc:Work>
    <dc:type rdf:resource="http://purl.org/dc/dcmitype/StillImage"/>
    <dc:date>2021-03-11T18:11:50.227282</dc:date>
    <dc:format>image/svg+xml</dc:format>
    <dc:creator>
     <cc:Agent>
      <dc:title>Matplotlib v3.3.4, https://matplotlib.org/</dc:title>
     </cc:Agent>
    </dc:creator>
   </cc:Work>
  </rdf:RDF>
 </metadata>
 <defs>
  <style type="text/css">*{stroke-linecap:butt;stroke-linejoin:round;}</style>
 </defs>
 <g id="figure_1">
  <g id="patch_1">
   <path d="M 0 540 
L 1080 540 
L 1080 0 
L 0 0 
z
" style="fill:#ffffff;"/>
  </g>
  <g id="axes_1">
   <g id="patch_2">
    <path d="M 135 472.5 
L 972 472.5 
L 972 64.8 
L 135 64.8 
z
" style="fill:#eaeaf2;"/>
   </g>
   <g id="matplotlib.axis_1">
    <g id="xtick_1">
     <g id="line2d_1">
      <path clip-path="url(#p305cdb1dc2)" d="M 136.434281 472.5 
L 136.434281 64.8 
" style="fill:none;stroke:#ffffff;stroke-linecap:round;"/>
     </g>
     <g id="text_1">
      <!-- −500 -->
      <g style="fill:#262626;" transform="translate(124.04639 489.873594)scale(0.11 -0.11)">
       <defs>
        <path d="M 52.828125 31.203125 
L 5.5625 31.203125 
L 5.5625 39.40625 
L 52.828125 39.40625 
z
" id="ArialMT-8722"/>
        <path d="M 4.15625 18.75 
L 13.375 19.53125 
Q 14.40625 12.796875 18.140625 9.390625 
Q 21.875 6 27.15625 6 
Q 33.5 6 37.890625 10.78125 
Q 42.28125 15.578125 42.28125 23.484375 
Q 42.28125 31 38.0625 35.34375 
Q 33.84375 39.703125 27 39.703125 
Q 22.75 39.703125 19.328125 37.765625 
Q 15.921875 35.84375 13.96875 32.765625 
L 5.71875 33.84375 
L 12.640625 70.609375 
L 48.25 70.609375 
L 48.25 62.203125 
L 19.671875 62.203125 
L 15.828125 42.96875 
Q 22.265625 47.46875 29.34375 47.46875 
Q 38.71875 47.46875 45.15625 40.96875 
Q 51.609375 34.46875 51.609375 24.265625 
Q 51.609375 14.546875 45.953125 7.46875 
Q 39.0625 -1.21875 27.15625 -1.21875 
Q 17.390625 -1.21875 11.203125 4.25 
Q 5.03125 9.71875 4.15625 18.75 
z
" id="ArialMT-53"/>
        <path d="M 4.15625 35.296875 
Q 4.15625 48 6.765625 55.734375 
Q 9.375 63.484375 14.515625 67.671875 
Q 19.671875 71.875 27.484375 71.875 
Q 33.25 71.875 37.59375 69.546875 
Q 41.9375 67.234375 44.765625 62.859375 
Q 47.609375 58.5 49.21875 52.21875 
Q 50.828125 45.953125 50.828125 35.296875 
Q 50.828125 22.703125 48.234375 14.96875 
Q 45.65625 7.234375 40.5 3 
Q 35.359375 -1.21875 27.484375 -1.21875 
Q 17.140625 -1.21875 11.234375 6.203125 
Q 4.15625 15.140625 4.15625 35.296875 
z
M 13.1875 35.296875 
Q 13.1875 17.671875 17.3125 11.828125 
Q 21.4375 6 27.484375 6 
Q 33.546875 6 37.671875 11.859375 
Q 41.796875 17.71875 41.796875 35.296875 
Q 41.796875 52.984375 37.671875 58.78125 
Q 33.546875 64.59375 27.390625 64.59375 
Q 21.34375 64.59375 17.71875 59.46875 
Q 13.1875 52.9375 13.1875 35.296875 
z
" id="ArialMT-48"/>
       </defs>
       <use xlink:href="#ArialMT-8722"/>
       <use x="58.398438" xlink:href="#ArialMT-53"/>
       <use x="114.013672" xlink:href="#ArialMT-48"/>
       <use x="169.628906" xlink:href="#ArialMT-48"/>
      </g>
     </g>
    </g>
    <g id="xtick_2">
     <g id="line2d_2">
      <path clip-path="url(#p305cdb1dc2)" d="M 231.04655 472.5 
L 231.04655 64.8 
" style="fill:none;stroke:#ffffff;stroke-linecap:round;"/>
     </g>
     <g id="text_2">
      <!-- 0 -->
      <g style="fill:#262626;" transform="translate(227.988035 489.873594)scale(0.11 -0.11)">
       <use xlink:href="#ArialMT-48"/>
      </g>
     </g>
    </g>
    <g id="xtick_3">
     <g id="line2d_3">
      <path clip-path="url(#p305cdb1dc2)" d="M 325.65882 472.5 
L 325.65882 64.8 
" style="fill:none;stroke:#ffffff;stroke-linecap:round;"/>
     </g>
     <g id="text_3">
      <!-- 500 -->
      <g style="fill:#262626;" transform="translate(316.483273 489.873594)scale(0.11 -0.11)">
       <use xlink:href="#ArialMT-53"/>
       <use x="55.615234" xlink:href="#ArialMT-48"/>
       <use x="111.230469" xlink:href="#ArialMT-48"/>
      </g>
     </g>
    </g>
    <g id="xtick_4">
     <g id="line2d_4">
      <path clip-path="url(#p305cdb1dc2)" d="M 420.271089 472.5 
L 420.271089 64.8 
" style="fill:none;stroke:#ffffff;stroke-linecap:round;"/>
     </g>
     <g id="text_4">
      <!-- 1000 -->
      <g style="fill:#262626;" transform="translate(408.037027 489.873594)scale(0.11 -0.11)">
       <defs>
        <path d="M 37.25 0 
L 28.46875 0 
L 28.46875 56 
Q 25.296875 52.984375 20.140625 49.953125 
Q 14.984375 46.921875 10.890625 45.40625 
L 10.890625 53.90625 
Q 18.265625 57.375 23.78125 62.296875 
Q 29.296875 67.234375 31.59375 71.875 
L 37.25 71.875 
z
" id="ArialMT-49"/>
       </defs>
       <use xlink:href="#ArialMT-49"/>
       <use x="55.615234" xlink:href="#ArialMT-48"/>
       <use x="111.230469" xlink:href="#ArialMT-48"/>
       <use x="166.845703" xlink:href="#ArialMT-48"/>
      </g>
     </g>
    </g>
    <g id="xtick_5">
     <g id="line2d_5">
      <path clip-path="url(#p305cdb1dc2)" d="M 514.883358 472.5 
L 514.883358 64.8 
" style="fill:none;stroke:#ffffff;stroke-linecap:round;"/>
     </g>
     <g id="text_5">
      <!-- 1500 -->
      <g style="fill:#262626;" transform="translate(502.649296 489.873594)scale(0.11 -0.11)">
       <use xlink:href="#ArialMT-49"/>
       <use x="55.615234" xlink:href="#ArialMT-53"/>
       <use x="111.230469" xlink:href="#ArialMT-48"/>
       <use x="166.845703" xlink:href="#ArialMT-48"/>
      </g>
     </g>
    </g>
    <g id="xtick_6">
     <g id="line2d_6">
      <path clip-path="url(#p305cdb1dc2)" d="M 609.495628 472.5 
L 609.495628 64.8 
" style="fill:none;stroke:#ffffff;stroke-linecap:round;"/>
     </g>
     <g id="text_6">
      <!-- 2000 -->
      <g style="fill:#262626;" transform="translate(597.261565 489.873594)scale(0.11 -0.11)">
       <defs>
        <path d="M 50.34375 8.453125 
L 50.34375 0 
L 3.03125 0 
Q 2.9375 3.171875 4.046875 6.109375 
Q 5.859375 10.9375 9.828125 15.625 
Q 13.8125 20.3125 21.34375 26.46875 
Q 33.015625 36.03125 37.109375 41.625 
Q 41.21875 47.21875 41.21875 52.203125 
Q 41.21875 57.421875 37.46875 61 
Q 33.734375 64.59375 27.734375 64.59375 
Q 21.390625 64.59375 17.578125 60.78125 
Q 13.765625 56.984375 13.71875 50.25 
L 4.6875 51.171875 
Q 5.609375 61.28125 11.65625 66.578125 
Q 17.71875 71.875 27.9375 71.875 
Q 38.234375 71.875 44.234375 66.15625 
Q 50.25 60.453125 50.25 52 
Q 50.25 47.703125 48.484375 43.546875 
Q 46.734375 39.40625 42.65625 34.8125 
Q 38.578125 30.21875 29.109375 22.21875 
Q 21.1875 15.578125 18.9375 13.203125 
Q 16.703125 10.84375 15.234375 8.453125 
z
" id="ArialMT-50"/>
       </defs>
       <use xlink:href="#ArialMT-50"/>
       <use x="55.615234" xlink:href="#ArialMT-48"/>
       <use x="111.230469" xlink:href="#ArialMT-48"/>
       <use x="166.845703" xlink:href="#ArialMT-48"/>
      </g>
     </g>
    </g>
    <g id="xtick_7">
     <g id="line2d_7">
      <path clip-path="url(#p305cdb1dc2)" d="M 704.107897 472.5 
L 704.107897 64.8 
" style="fill:none;stroke:#ffffff;stroke-linecap:round;"/>
     </g>
     <g id="text_7">
      <!-- 2500 -->
      <g style="fill:#262626;" transform="translate(691.873835 489.873594)scale(0.11 -0.11)">
       <use xlink:href="#ArialMT-50"/>
       <use x="55.615234" xlink:href="#ArialMT-53"/>
       <use x="111.230469" xlink:href="#ArialMT-48"/>
       <use x="166.845703" xlink:href="#ArialMT-48"/>
      </g>
     </g>
    </g>
    <g id="xtick_8">
     <g id="line2d_8">
      <path clip-path="url(#p305cdb1dc2)" d="M 798.720167 472.5 
L 798.720167 64.8 
" style="fill:none;stroke:#ffffff;stroke-linecap:round;"/>
     </g>
     <g id="text_8">
      <!-- 3000 -->
      <g style="fill:#262626;" transform="translate(786.486104 489.873594)scale(0.11 -0.11)">
       <defs>
        <path d="M 4.203125 18.890625 
L 12.984375 20.0625 
Q 14.5 12.59375 18.140625 9.296875 
Q 21.78125 6 27 6 
Q 33.203125 6 37.46875 10.296875 
Q 41.75 14.59375 41.75 20.953125 
Q 41.75 27 37.796875 30.921875 
Q 33.84375 34.859375 27.734375 34.859375 
Q 25.25 34.859375 21.53125 33.890625 
L 22.515625 41.609375 
Q 23.390625 41.5 23.921875 41.5 
Q 29.546875 41.5 34.03125 44.421875 
Q 38.53125 47.359375 38.53125 53.46875 
Q 38.53125 58.296875 35.25 61.46875 
Q 31.984375 64.65625 26.8125 64.65625 
Q 21.6875 64.65625 18.265625 61.421875 
Q 14.84375 58.203125 13.875 51.765625 
L 5.078125 53.328125 
Q 6.6875 62.15625 12.390625 67.015625 
Q 18.109375 71.875 26.609375 71.875 
Q 32.46875 71.875 37.390625 69.359375 
Q 42.328125 66.84375 44.9375 62.5 
Q 47.5625 58.15625 47.5625 53.265625 
Q 47.5625 48.640625 45.0625 44.828125 
Q 42.578125 41.015625 37.703125 38.765625 
Q 44.046875 37.3125 47.5625 32.6875 
Q 51.078125 28.078125 51.078125 21.140625 
Q 51.078125 11.765625 44.234375 5.25 
Q 37.40625 -1.265625 26.953125 -1.265625 
Q 17.53125 -1.265625 11.296875 4.34375 
Q 5.078125 9.96875 4.203125 18.890625 
z
" id="ArialMT-51"/>
       </defs>
       <use xlink:href="#ArialMT-51"/>
       <use x="55.615234" xlink:href="#ArialMT-48"/>
       <use x="111.230469" xlink:href="#ArialMT-48"/>
       <use x="166.845703" xlink:href="#ArialMT-48"/>
      </g>
     </g>
    </g>
    <g id="xtick_9">
     <g id="line2d_9">
      <path clip-path="url(#p305cdb1dc2)" d="M 893.332436 472.5 
L 893.332436 64.8 
" style="fill:none;stroke:#ffffff;stroke-linecap:round;"/>
     </g>
     <g id="text_9">
      <!-- 3500 -->
      <g style="fill:#262626;" transform="translate(881.098373 489.873594)scale(0.11 -0.11)">
       <use xlink:href="#ArialMT-51"/>
       <use x="55.615234" xlink:href="#ArialMT-53"/>
       <use x="111.230469" xlink:href="#ArialMT-48"/>
       <use x="166.845703" xlink:href="#ArialMT-48"/>
      </g>
     </g>
    </g>
    <g id="text_10">
     <!-- valor_2017 -->
     <g style="fill:#262626;" transform="translate(523.813125 504.684844)scale(0.12 -0.12)">
      <defs>
       <path d="M 21 0 
L 1.265625 51.859375 
L 10.546875 51.859375 
L 21.6875 20.796875 
Q 23.484375 15.765625 25 10.359375 
Q 26.171875 14.453125 28.265625 20.21875 
L 39.796875 51.859375 
L 48.828125 51.859375 
L 29.203125 0 
z
" id="ArialMT-118"/>
       <path d="M 40.4375 6.390625 
Q 35.546875 2.25 31.03125 0.53125 
Q 26.515625 -1.171875 21.34375 -1.171875 
Q 12.796875 -1.171875 8.203125 3 
Q 3.609375 7.171875 3.609375 13.671875 
Q 3.609375 17.484375 5.34375 20.625 
Q 7.078125 23.78125 9.890625 25.6875 
Q 12.703125 27.59375 16.21875 28.5625 
Q 18.796875 29.25 24.03125 29.890625 
Q 34.671875 31.15625 39.703125 32.90625 
Q 39.75 34.71875 39.75 35.203125 
Q 39.75 40.578125 37.25 42.78125 
Q 33.890625 45.75 27.25 45.75 
Q 21.046875 45.75 18.09375 43.578125 
Q 15.140625 41.40625 13.71875 35.890625 
L 5.125 37.0625 
Q 6.296875 42.578125 8.984375 45.96875 
Q 11.671875 49.359375 16.75 51.1875 
Q 21.828125 53.03125 28.515625 53.03125 
Q 35.15625 53.03125 39.296875 51.46875 
Q 43.453125 49.90625 45.40625 47.53125 
Q 47.359375 45.171875 48.140625 41.546875 
Q 48.578125 39.3125 48.578125 33.453125 
L 48.578125 21.734375 
Q 48.578125 9.46875 49.140625 6.21875 
Q 49.703125 2.984375 51.375 0 
L 42.1875 0 
Q 40.828125 2.734375 40.4375 6.390625 
z
M 39.703125 26.03125 
Q 34.90625 24.078125 25.34375 22.703125 
Q 19.921875 21.921875 17.671875 20.9375 
Q 15.4375 19.96875 14.203125 18.09375 
Q 12.984375 16.21875 12.984375 13.921875 
Q 12.984375 10.40625 15.640625 8.0625 
Q 18.3125 5.71875 23.4375 5.71875 
Q 28.515625 5.71875 32.46875 7.9375 
Q 36.421875 10.15625 38.28125 14.015625 
Q 39.703125 17 39.703125 22.796875 
z
" id="ArialMT-97"/>
       <path d="M 6.390625 0 
L 6.390625 71.578125 
L 15.1875 71.578125 
L 15.1875 0 
z
" id="ArialMT-108"/>
       <path d="M 3.328125 25.921875 
Q 3.328125 40.328125 11.328125 47.265625 
Q 18.015625 53.03125 27.640625 53.03125 
Q 38.328125 53.03125 45.109375 46.015625 
Q 51.90625 39.015625 51.90625 26.65625 
Q 51.90625 16.65625 48.90625 10.90625 
Q 45.90625 5.171875 40.15625 2 
Q 34.421875 -1.171875 27.640625 -1.171875 
Q 16.75 -1.171875 10.03125 5.8125 
Q 3.328125 12.796875 3.328125 25.921875 
z
M 12.359375 25.921875 
Q 12.359375 15.96875 16.703125 11.015625 
Q 21.046875 6.0625 27.640625 6.0625 
Q 34.1875 6.0625 38.53125 11.03125 
Q 42.875 16.015625 42.875 26.21875 
Q 42.875 35.84375 38.5 40.796875 
Q 34.125 45.75 27.640625 45.75 
Q 21.046875 45.75 16.703125 40.8125 
Q 12.359375 35.890625 12.359375 25.921875 
z
" id="ArialMT-111"/>
       <path d="M 6.5 0 
L 6.5 51.859375 
L 14.40625 51.859375 
L 14.40625 44 
Q 17.4375 49.515625 20 51.265625 
Q 22.5625 53.03125 25.640625 53.03125 
Q 30.078125 53.03125 34.671875 50.203125 
L 31.640625 42.046875 
Q 28.421875 43.953125 25.203125 43.953125 
Q 22.3125 43.953125 20.015625 42.21875 
Q 17.71875 40.484375 16.75 37.40625 
Q 15.28125 32.71875 15.28125 27.15625 
L 15.28125 0 
z
" id="ArialMT-114"/>
       <path d="M -1.515625 -19.875 
L -1.515625 -13.53125 
L 56.734375 -13.53125 
L 56.734375 -19.875 
z
" id="ArialMT-95"/>
       <path d="M 4.734375 62.203125 
L 4.734375 70.65625 
L 51.078125 70.65625 
L 51.078125 63.8125 
Q 44.234375 56.546875 37.515625 44.484375 
Q 30.8125 32.421875 27.15625 19.671875 
Q 24.515625 10.6875 23.78125 0 
L 14.75 0 
Q 14.890625 8.453125 18.0625 20.40625 
Q 21.234375 32.375 27.171875 43.484375 
Q 33.109375 54.59375 39.796875 62.203125 
z
" id="ArialMT-55"/>
      </defs>
      <use xlink:href="#ArialMT-118"/>
      <use x="50" xlink:href="#ArialMT-97"/>
      <use x="105.615234" xlink:href="#ArialMT-108"/>
      <use x="127.832031" xlink:href="#ArialMT-111"/>
      <use x="183.447266" xlink:href="#ArialMT-114"/>
      <use x="216.748047" xlink:href="#ArialMT-95"/>
      <use x="272.363281" xlink:href="#ArialMT-50"/>
      <use x="327.978516" xlink:href="#ArialMT-48"/>
      <use x="383.59375" xlink:href="#ArialMT-49"/>
      <use x="439.208984" xlink:href="#ArialMT-55"/>
     </g>
    </g>
   </g>
   <g id="matplotlib.axis_2">
    <g id="ytick_1">
     <g id="line2d_10">
      <path clip-path="url(#p305cdb1dc2)" d="M 135 472.5 
L 972 472.5 
" style="fill:none;stroke:#ffffff;stroke-linecap:round;"/>
     </g>
     <g id="text_11">
      <!-- 0.00000 -->
      <g style="fill:#262626;" transform="translate(85.741875 476.436797)scale(0.11 -0.11)">
       <defs>
        <path d="M 9.078125 0 
L 9.078125 10.015625 
L 19.09375 10.015625 
L 19.09375 0 
z
" id="ArialMT-46"/>
       </defs>
       <use xlink:href="#ArialMT-48"/>
       <use x="55.615234" xlink:href="#ArialMT-46"/>
       <use x="83.398438" xlink:href="#ArialMT-48"/>
       <use x="139.013672" xlink:href="#ArialMT-48"/>
       <use x="194.628906" xlink:href="#ArialMT-48"/>
       <use x="250.244141" xlink:href="#ArialMT-48"/>
       <use x="305.859375" xlink:href="#ArialMT-48"/>
      </g>
     </g>
    </g>
    <g id="ytick_2">
     <g id="line2d_11">
      <path clip-path="url(#p305cdb1dc2)" d="M 135 416.895105 
L 972 416.895105 
" style="fill:none;stroke:#ffffff;stroke-linecap:round;"/>
     </g>
     <g id="text_12">
      <!-- 0.00025 -->
      <g style="fill:#262626;" transform="translate(85.741875 420.831902)scale(0.11 -0.11)">
       <use xlink:href="#ArialMT-48"/>
       <use x="55.615234" xlink:href="#ArialMT-46"/>
       <use x="83.398438" xlink:href="#ArialMT-48"/>
       <use x="139.013672" xlink:href="#ArialMT-48"/>
       <use x="194.628906" xlink:href="#ArialMT-48"/>
       <use x="250.244141" xlink:href="#ArialMT-50"/>
       <use x="305.859375" xlink:href="#ArialMT-53"/>
      </g>
     </g>
    </g>
    <g id="ytick_3">
     <g id="line2d_12">
      <path clip-path="url(#p305cdb1dc2)" d="M 135 361.29021 
L 972 361.29021 
" style="fill:none;stroke:#ffffff;stroke-linecap:round;"/>
     </g>
     <g id="text_13">
      <!-- 0.00050 -->
      <g style="fill:#262626;" transform="translate(85.741875 365.227007)scale(0.11 -0.11)">
       <use xlink:href="#ArialMT-48"/>
       <use x="55.615234" xlink:href="#ArialMT-46"/>
       <use x="83.398438" xlink:href="#ArialMT-48"/>
       <use x="139.013672" xlink:href="#ArialMT-48"/>
       <use x="194.628906" xlink:href="#ArialMT-48"/>
       <use x="250.244141" xlink:href="#ArialMT-53"/>
       <use x="305.859375" xlink:href="#ArialMT-48"/>
      </g>
     </g>
    </g>
    <g id="ytick_4">
     <g id="line2d_13">
      <path clip-path="url(#p305cdb1dc2)" d="M 135 305.685315 
L 972 305.685315 
" style="fill:none;stroke:#ffffff;stroke-linecap:round;"/>
     </g>
     <g id="text_14">
      <!-- 0.00075 -->
      <g style="fill:#262626;" transform="translate(85.741875 309.622112)scale(0.11 -0.11)">
       <use xlink:href="#ArialMT-48"/>
       <use x="55.615234" xlink:href="#ArialMT-46"/>
       <use x="83.398438" xlink:href="#ArialMT-48"/>
       <use x="139.013672" xlink:href="#ArialMT-48"/>
       <use x="194.628906" xlink:href="#ArialMT-48"/>
       <use x="250.244141" xlink:href="#ArialMT-55"/>
       <use x="305.859375" xlink:href="#ArialMT-53"/>
      </g>
     </g>
    </g>
    <g id="ytick_5">
     <g id="line2d_14">
      <path clip-path="url(#p305cdb1dc2)" d="M 135 250.08042 
L 972 250.08042 
" style="fill:none;stroke:#ffffff;stroke-linecap:round;"/>
     </g>
     <g id="text_15">
      <!-- 0.00100 -->
      <g style="fill:#262626;" transform="translate(85.741875 254.017217)scale(0.11 -0.11)">
       <use xlink:href="#ArialMT-48"/>
       <use x="55.615234" xlink:href="#ArialMT-46"/>
       <use x="83.398438" xlink:href="#ArialMT-48"/>
       <use x="139.013672" xlink:href="#ArialMT-48"/>
       <use x="194.628906" xlink:href="#ArialMT-49"/>
       <use x="250.244141" xlink:href="#ArialMT-48"/>
       <use x="305.859375" xlink:href="#ArialMT-48"/>
      </g>
     </g>
    </g>
    <g id="ytick_6">
     <g id="line2d_15">
      <path clip-path="url(#p305cdb1dc2)" d="M 135 194.475525 
L 972 194.475525 
" style="fill:none;stroke:#ffffff;stroke-linecap:round;"/>
     </g>
     <g id="text_16">
      <!-- 0.00125 -->
      <g style="fill:#262626;" transform="translate(85.741875 198.412322)scale(0.11 -0.11)">
       <use xlink:href="#ArialMT-48"/>
       <use x="55.615234" xlink:href="#ArialMT-46"/>
       <use x="83.398438" xlink:href="#ArialMT-48"/>
       <use x="139.013672" xlink:href="#ArialMT-48"/>
       <use x="194.628906" xlink:href="#ArialMT-49"/>
       <use x="250.244141" xlink:href="#ArialMT-50"/>
       <use x="305.859375" xlink:href="#ArialMT-53"/>
      </g>
     </g>
    </g>
    <g id="ytick_7">
     <g id="line2d_16">
      <path clip-path="url(#p305cdb1dc2)" d="M 135 138.87063 
L 972 138.87063 
" style="fill:none;stroke:#ffffff;stroke-linecap:round;"/>
     </g>
     <g id="text_17">
      <!-- 0.00150 -->
      <g style="fill:#262626;" transform="translate(85.741875 142.807427)scale(0.11 -0.11)">
       <use xlink:href="#ArialMT-48"/>
       <use x="55.615234" xlink:href="#ArialMT-46"/>
       <use x="83.398438" xlink:href="#ArialMT-48"/>
       <use x="139.013672" xlink:href="#ArialMT-48"/>
       <use x="194.628906" xlink:href="#ArialMT-49"/>
       <use x="250.244141" xlink:href="#ArialMT-53"/>
       <use x="305.859375" xlink:href="#ArialMT-48"/>
      </g>
     </g>
    </g>
    <g id="ytick_8">
     <g id="line2d_17">
      <path clip-path="url(#p305cdb1dc2)" d="M 135 83.265735 
L 972 83.265735 
" style="fill:none;stroke:#ffffff;stroke-linecap:round;"/>
     </g>
     <g id="text_18">
      <!-- 0.00175 -->
      <g style="fill:#262626;" transform="translate(85.741875 87.202532)scale(0.11 -0.11)">
       <use xlink:href="#ArialMT-48"/>
       <use x="55.615234" xlink:href="#ArialMT-46"/>
       <use x="83.398438" xlink:href="#ArialMT-48"/>
       <use x="139.013672" xlink:href="#ArialMT-48"/>
       <use x="194.628906" xlink:href="#ArialMT-49"/>
       <use x="250.244141" xlink:href="#ArialMT-55"/>
       <use x="305.859375" xlink:href="#ArialMT-53"/>
      </g>
     </g>
    </g>
    <g id="text_19">
     <!-- y axis -->
     <g style="fill:#262626;" transform="translate(79.21625 283.986562)rotate(-90)scale(0.12 -0.12)">
      <defs>
       <path d="M 6.203125 -19.96875 
L 5.21875 -11.71875 
Q 8.109375 -12.5 10.25 -12.5 
Q 13.1875 -12.5 14.9375 -11.515625 
Q 16.703125 -10.546875 17.828125 -8.796875 
Q 18.65625 -7.46875 20.515625 -2.25 
Q 20.75 -1.515625 21.296875 -0.09375 
L 1.609375 51.859375 
L 11.078125 51.859375 
L 21.875 21.828125 
Q 23.96875 16.109375 25.640625 9.8125 
Q 27.15625 15.875 29.25 21.625 
L 40.328125 51.859375 
L 49.125 51.859375 
L 29.390625 -0.875 
Q 26.21875 -9.421875 24.46875 -12.640625 
Q 22.125 -17 19.09375 -19.015625 
Q 16.0625 -21.046875 11.859375 -21.046875 
Q 9.328125 -21.046875 6.203125 -19.96875 
z
" id="ArialMT-121"/>
       <path id="ArialMT-32"/>
       <path d="M 0.734375 0 
L 19.671875 26.953125 
L 2.15625 51.859375 
L 13.140625 51.859375 
L 21.09375 39.703125 
Q 23.34375 36.234375 24.703125 33.890625 
Q 26.859375 37.109375 28.65625 39.59375 
L 37.40625 51.859375 
L 47.90625 51.859375 
L 29.984375 27.4375 
L 49.265625 0 
L 38.484375 0 
L 27.828125 16.109375 
L 25 20.453125 
L 11.375 0 
z
" id="ArialMT-120"/>
       <path d="M 6.640625 61.46875 
L 6.640625 71.578125 
L 15.4375 71.578125 
L 15.4375 61.46875 
z
M 6.640625 0 
L 6.640625 51.859375 
L 15.4375 51.859375 
L 15.4375 0 
z
" id="ArialMT-105"/>
       <path d="M 3.078125 15.484375 
L 11.765625 16.84375 
Q 12.5 11.625 15.84375 8.84375 
Q 19.1875 6.0625 25.203125 6.0625 
Q 31.25 6.0625 34.171875 8.515625 
Q 37.109375 10.984375 37.109375 14.3125 
Q 37.109375 17.28125 34.515625 19 
Q 32.71875 20.171875 25.53125 21.96875 
Q 15.875 24.421875 12.140625 26.203125 
Q 8.40625 27.984375 6.46875 31.125 
Q 4.546875 34.28125 4.546875 38.09375 
Q 4.546875 41.546875 6.125 44.5 
Q 7.71875 47.46875 10.453125 49.421875 
Q 12.5 50.921875 16.03125 51.96875 
Q 19.578125 53.03125 23.640625 53.03125 
Q 29.734375 53.03125 34.34375 51.265625 
Q 38.96875 49.515625 41.15625 46.5 
Q 43.359375 43.5 44.1875 38.484375 
L 35.59375 37.3125 
Q 35.015625 41.3125 32.203125 43.546875 
Q 29.390625 45.796875 24.265625 45.796875 
Q 18.21875 45.796875 15.625 43.796875 
Q 13.03125 41.796875 13.03125 39.109375 
Q 13.03125 37.40625 14.109375 36.03125 
Q 15.1875 34.625 17.484375 33.6875 
Q 18.796875 33.203125 25.25 31.453125 
Q 34.578125 28.953125 38.25 27.359375 
Q 41.9375 25.78125 44.03125 22.75 
Q 46.140625 19.734375 46.140625 15.234375 
Q 46.140625 10.84375 43.578125 6.953125 
Q 41.015625 3.078125 36.171875 0.953125 
Q 31.34375 -1.171875 25.25 -1.171875 
Q 15.140625 -1.171875 9.84375 3.03125 
Q 4.546875 7.234375 3.078125 15.484375 
z
" id="ArialMT-115"/>
      </defs>
      <use xlink:href="#ArialMT-121"/>
      <use x="50" xlink:href="#ArialMT-32"/>
      <use x="77.783203" xlink:href="#ArialMT-97"/>
      <use x="133.398438" xlink:href="#ArialMT-120"/>
      <use x="183.398438" xlink:href="#ArialMT-105"/>
      <use x="205.615234" xlink:href="#ArialMT-115"/>
     </g>
    </g>
   </g>
   <g id="PolyCollection_1">
    <defs>
     <path d="M 219.703107 -67.547964 
L 219.703107 -67.5 
L 222.127334 -67.5 
L 224.551561 -67.5 
L 226.975787 -67.5 
L 229.400014 -67.5 
L 231.824241 -67.5 
L 234.248468 -67.5 
L 236.672695 -67.5 
L 239.096922 -67.5 
L 241.521149 -67.5 
L 243.945376 -67.5 
L 246.369602 -67.5 
L 248.793829 -67.5 
L 251.218056 -67.5 
L 253.642283 -67.5 
L 256.06651 -67.5 
L 258.490737 -67.5 
L 260.914964 -67.5 
L 263.339191 -67.5 
L 265.763418 -67.5 
L 268.187644 -67.5 
L 270.611871 -67.5 
L 273.036098 -67.5 
L 275.460325 -67.5 
L 277.884552 -67.5 
L 280.308779 -67.5 
L 282.733006 -67.5 
L 285.157233 -67.5 
L 287.581459 -67.5 
L 290.005686 -67.5 
L 292.429913 -67.5 
L 294.85414 -67.5 
L 297.278367 -67.5 
L 299.702594 -67.5 
L 302.126821 -67.5 
L 304.551048 -67.5 
L 306.975275 -67.5 
L 309.399501 -67.5 
L 311.823728 -67.5 
L 314.247955 -67.5 
L 316.672182 -67.5 
L 319.096409 -67.5 
L 321.520636 -67.5 
L 323.944863 -67.5 
L 326.36909 -67.5 
L 328.793317 -67.5 
L 331.217543 -67.5 
L 333.64177 -67.5 
L 336.065997 -67.5 
L 338.490224 -67.5 
L 340.914451 -67.5 
L 343.338678 -67.5 
L 345.762905 -67.5 
L 348.187132 -67.5 
L 350.611358 -67.5 
L 353.035585 -67.5 
L 355.459812 -67.5 
L 357.884039 -67.5 
L 360.308266 -67.5 
L 362.732493 -67.5 
L 365.15672 -67.5 
L 367.580947 -67.5 
L 370.005174 -67.5 
L 372.4294 -67.5 
L 374.853627 -67.5 
L 377.277854 -67.5 
L 379.702081 -67.5 
L 382.126308 -67.5 
L 384.550535 -67.5 
L 386.974762 -67.5 
L 389.398989 -67.5 
L 391.823215 -67.5 
L 394.247442 -67.5 
L 396.671669 -67.5 
L 399.095896 -67.5 
L 401.520123 -67.5 
L 403.94435 -67.5 
L 406.368577 -67.5 
L 408.792804 -67.5 
L 411.217031 -67.5 
L 413.641257 -67.5 
L 416.065484 -67.5 
L 418.489711 -67.5 
L 420.913938 -67.5 
L 423.338165 -67.5 
L 425.762392 -67.5 
L 428.186619 -67.5 
L 430.610846 -67.5 
L 433.035073 -67.5 
L 435.459299 -67.5 
L 437.883526 -67.5 
L 440.307753 -67.5 
L 442.73198 -67.5 
L 445.156207 -67.5 
L 447.580434 -67.5 
L 450.004661 -67.5 
L 452.428888 -67.5 
L 454.853114 -67.5 
L 457.277341 -67.5 
L 459.701568 -67.5 
L 462.125795 -67.5 
L 464.550022 -67.5 
L 466.974249 -67.5 
L 469.398476 -67.5 
L 471.822703 -67.5 
L 474.24693 -67.5 
L 476.671156 -67.5 
L 479.095383 -67.5 
L 481.51961 -67.5 
L 483.943837 -67.5 
L 486.368064 -67.5 
L 488.792291 -67.5 
L 491.216518 -67.5 
L 493.640745 -67.5 
L 496.064971 -67.5 
L 498.489198 -67.5 
L 500.913425 -67.5 
L 503.337652 -67.5 
L 505.761879 -67.5 
L 508.186106 -67.5 
L 510.610333 -67.5 
L 513.03456 -67.5 
L 515.458787 -67.5 
L 517.883013 -67.5 
L 520.30724 -67.5 
L 522.731467 -67.5 
L 525.155694 -67.5 
L 527.579921 -67.5 
L 530.004148 -67.5 
L 532.428375 -67.5 
L 534.852602 -67.5 
L 537.276828 -67.5 
L 539.701055 -67.5 
L 542.125282 -67.5 
L 544.549509 -67.5 
L 546.973736 -67.5 
L 549.397963 -67.5 
L 551.82219 -67.5 
L 554.246417 -67.5 
L 556.670644 -67.5 
L 559.09487 -67.5 
L 561.519097 -67.5 
L 563.943324 -67.5 
L 566.367551 -67.5 
L 568.791778 -67.5 
L 571.216005 -67.5 
L 573.640232 -67.5 
L 576.064459 -67.5 
L 578.488686 -67.5 
L 580.912912 -67.5 
L 583.337139 -67.5 
L 585.761366 -67.5 
L 588.185593 -67.5 
L 590.60982 -67.5 
L 593.034047 -67.5 
L 595.458274 -67.5 
L 597.882501 -67.5 
L 600.306727 -67.5 
L 602.730954 -67.5 
L 605.155181 -67.5 
L 607.579408 -67.5 
L 610.003635 -67.5 
L 612.427862 -67.5 
L 614.852089 -67.5 
L 617.276316 -67.5 
L 619.700543 -67.5 
L 622.124769 -67.5 
L 624.548996 -67.5 
L 626.973223 -67.5 
L 629.39745 -67.5 
L 631.821677 -67.5 
L 634.245904 -67.5 
L 636.670131 -67.5 
L 639.094358 -67.5 
L 641.518584 -67.5 
L 643.942811 -67.5 
L 646.367038 -67.5 
L 648.791265 -67.5 
L 651.215492 -67.5 
L 653.639719 -67.5 
L 656.063946 -67.5 
L 658.488173 -67.5 
L 660.9124 -67.5 
L 663.336626 -67.5 
L 665.760853 -67.5 
L 668.18508 -67.5 
L 670.609307 -67.5 
L 673.033534 -67.5 
L 675.457761 -67.5 
L 677.881988 -67.5 
L 680.306215 -67.5 
L 682.730441 -67.5 
L 685.154668 -67.5 
L 687.578895 -67.5 
L 690.003122 -67.5 
L 692.427349 -67.5 
L 694.851576 -67.5 
L 697.275803 -67.5 
L 699.70003 -67.5 
L 702.124257 -67.5 
L 702.124257 -67.524911 
L 702.124257 -67.524911 
L 699.70003 -67.53742 
L 697.275803 -67.555209 
L 694.851576 -67.580016 
L 692.427349 -67.613939 
L 690.003122 -67.659431 
L 687.578895 -67.719263 
L 685.154668 -67.796446 
L 682.730441 -67.894116 
L 680.306215 -68.015374 
L 677.881988 -68.163093 
L 675.457761 -68.339701 
L 673.033534 -68.546958 
L 670.609307 -68.78574 
L 668.18508 -69.055851 
L 665.760853 -69.355874 
L 663.336626 -69.683072 
L 660.9124 -70.033342 
L 658.488173 -70.401228 
L 656.063946 -70.779972 
L 653.639719 -71.161627 
L 651.215492 -71.537208 
L 648.791265 -71.896908 
L 646.367038 -72.230383 
L 643.942811 -72.52711 
L 641.518584 -72.776852 
L 639.094358 -72.970198 
L 636.670131 -73.09918 
L 634.245904 -73.157919 
L 631.821677 -73.143241 
L 629.39745 -73.055201 
L 626.973223 -72.897425 
L 624.548996 -72.677223 
L 622.124769 -72.405424 
L 619.700543 -72.095922 
L 617.276316 -71.764961 
L 614.852089 -71.430229 
L 612.427862 -71.109824 
L 610.003635 -70.82122 
L 607.579408 -70.58031 
L 605.155181 -70.400624 
L 602.730954 -70.292773 
L 600.306727 -70.264163 
L 597.882501 -70.318966 
L 595.458274 -70.458327 
L 593.034047 -70.680752 
L 590.60982 -70.982631 
L 588.185593 -71.35881 
L 585.761366 -71.803173 
L 583.337139 -72.30918 
L 580.912912 -72.870322 
L 578.488686 -73.480488 
L 576.064459 -74.134236 
L 573.640232 -74.826967 
L 571.216005 -75.555029 
L 568.791778 -76.31575 
L 566.367551 -77.107413 
L 563.943324 -77.929181 
L 561.519097 -78.780957 
L 559.09487 -79.663197 
L 556.670644 -80.576651 
L 554.246417 -81.522066 
L 551.82219 -82.499856 
L 549.397963 -83.509765 
L 546.973736 -84.550579 
L 544.549509 -85.619914 
L 542.125282 -86.714137 
L 539.701055 -87.828433 
L 537.276828 -88.957054 
L 534.852602 -90.09373 
L 532.428375 -91.232224 
L 530.004148 -92.366993 
L 527.579921 -93.493876 
L 525.155694 -94.610767 
L 522.731467 -95.718184 
L 520.30724 -96.819679 
L 517.883013 -97.922044 
L 515.458787 -99.035284 
L 513.03456 -100.172344 
L 510.610333 -101.348625 
L 508.186106 -102.581333 
L 505.761879 -103.88871 
L 503.337652 -105.289245 
L 500.913425 -106.800917 
L 498.489198 -108.440549 
L 496.064971 -110.223316 
L 493.640745 -112.162418 
L 491.216518 -114.268923 
L 488.792291 -116.55173 
L 486.368064 -119.017606 
L 483.943837 -121.671229 
L 481.51961 -124.515165 
L 479.095383 -127.549755 
L 476.671156 -130.772887 
L 474.24693 -134.179684 
L 471.822703 -137.762185 
L 469.398476 -141.50912 
L 466.974249 -145.405905 
L 464.550022 -149.434978 
L 462.125795 -153.576585 
L 459.701568 -157.810033 
L 457.277341 -162.115401 
L 454.853114 -166.475561 
L 452.428888 -170.878345 
L 450.004661 -175.318557 
L 447.580434 -179.799575 
L 445.156207 -184.334231 
L 442.73198 -188.944792 
L 440.307753 -193.661886 
L 437.883526 -198.522423 
L 435.459299 -203.56665 
L 433.035073 -208.834631 
L 430.610846 -214.362559 
L 428.186619 -220.179304 
L 425.762392 -226.303637 
L 423.338165 -232.742457 
L 420.913938 -239.490206 
L 418.489711 -246.529511 
L 416.065484 -253.832888 
L 413.641257 -261.36518 
L 411.217031 -269.086308 
L 408.792804 -276.95384 
L 406.368577 -284.92494 
L 403.94435 -292.957329 
L 401.520123 -301.0091 
L 399.095896 -309.037383 
L 396.671669 -316.996105 
L 394.247442 -324.833267 
L 391.823215 -332.4883 
L 389.398989 -339.890132 
L 386.974762 -346.956566 
L 384.550535 -353.595449 
L 382.126308 -359.707868 
L 379.702081 -365.193342 
L 377.277854 -369.956602 
L 374.853627 -373.915256 
L 372.4294 -377.007351 
L 370.005174 -379.197712 
L 367.580947 -380.481981 
L 365.15672 -380.887463 
L 362.732493 -380.470327 
L 360.308266 -379.30918 
L 357.884039 -377.495646 
L 355.459812 -375.123069 
L 353.035585 -372.274837 
L 350.611358 -369.013977 
L 348.187132 -365.375524 
L 345.762905 -361.362817 
L 343.338678 -356.948273 
L 340.914451 -352.078539 
L 338.490224 -346.683289 
L 336.065997 -340.686363 
L 333.64177 -334.017731 
L 331.217543 -326.62463 
L 328.793317 -318.480513 
L 326.36909 -309.590768 
L 323.944863 -299.994749 
L 321.520636 -289.764125 
L 319.096409 -278.998068 
L 316.672182 -267.816107 
L 314.247955 -256.349676 
L 311.823728 -244.733412 
L 309.399501 -233.097125 
L 306.975275 -221.559214 
L 304.551048 -210.22198 
L 302.126821 -199.169066 
L 299.702594 -188.464972 
L 297.278367 -178.156375 
L 294.85414 -168.27482 
L 292.429913 -158.840259 
L 290.005686 -149.864858 
L 287.581459 -141.35655 
L 285.157233 -133.321905 
L 282.733006 -125.768023 
L 280.308779 -118.703323 
L 277.884552 -112.137291 
L 275.460325 -106.079367 
L 273.036098 -100.537286 
L 270.611871 -95.515202 
L 268.187644 -91.011955 
L 265.763418 -87.019744 
L 263.339191 -83.523403 
L 260.914964 -80.500355 
L 258.490737 -77.921218 
L 256.06651 -75.750954 
L 253.642283 -73.950394 
L 251.218056 -72.477951 
L 248.793829 -71.291343 
L 246.369602 -70.349159 
L 243.945376 -69.612174 
L 241.521149 -69.044345 
L 239.096922 -68.61346 
L 236.672695 -68.291472 
L 234.248468 -68.054553 
L 231.824241 -67.882924 
L 229.400014 -67.760531 
L 226.975787 -67.674621 
L 224.551561 -67.615277 
L 222.127334 -67.574939 
L 219.703107 -67.547964 
z
" id="m2f12ebcd06" style="stroke:#9467bd;stroke-width:1.5;"/>
    </defs>
    <g clip-path="url(#p305cdb1dc2)">
     <use style="fill:#9467bd;fill-opacity:0.5;stroke:#9467bd;stroke-width:1.5;" x="0" xlink:href="#m2f12ebcd06" y="540"/>
    </g>
   </g>
   <g id="PolyCollection_2">
    <defs>
     <path d="M 197.304185 -67.514032 
L 197.304185 -67.5 
L 199.360988 -67.5 
L 201.417791 -67.5 
L 203.474593 -67.5 
L 205.531396 -67.5 
L 207.588198 -67.5 
L 209.645001 -67.5 
L 211.701804 -67.5 
L 213.758606 -67.5 
L 215.815409 -67.5 
L 217.872212 -67.5 
L 219.929014 -67.5 
L 221.985817 -67.5 
L 224.042619 -67.5 
L 226.099422 -67.5 
L 228.156225 -67.5 
L 230.213027 -67.5 
L 232.26983 -67.5 
L 234.326632 -67.5 
L 236.383435 -67.5 
L 238.440238 -67.5 
L 240.49704 -67.5 
L 242.553843 -67.5 
L 244.610646 -67.5 
L 246.667448 -67.5 
L 248.724251 -67.5 
L 250.781053 -67.5 
L 252.837856 -67.5 
L 254.894659 -67.5 
L 256.951461 -67.5 
L 259.008264 -67.5 
L 261.065067 -67.5 
L 263.121869 -67.5 
L 265.178672 -67.5 
L 267.235474 -67.5 
L 269.292277 -67.5 
L 271.34908 -67.5 
L 273.405882 -67.5 
L 275.462685 -67.5 
L 277.519487 -67.5 
L 279.57629 -67.5 
L 281.633093 -67.5 
L 283.689895 -67.5 
L 285.746698 -67.5 
L 287.803501 -67.5 
L 289.860303 -67.5 
L 291.917106 -67.5 
L 293.973908 -67.5 
L 296.030711 -67.5 
L 298.087514 -67.5 
L 300.144316 -67.5 
L 302.201119 -67.5 
L 304.257922 -67.5 
L 306.314724 -67.5 
L 308.371527 -67.5 
L 310.428329 -67.5 
L 312.485132 -67.5 
L 314.541935 -67.5 
L 316.598737 -67.5 
L 318.65554 -67.5 
L 320.712343 -67.5 
L 322.769145 -67.5 
L 324.825948 -67.5 
L 326.88275 -67.5 
L 328.939553 -67.5 
L 330.996356 -67.5 
L 333.053158 -67.5 
L 335.109961 -67.5 
L 337.166763 -67.5 
L 339.223566 -67.5 
L 341.280369 -67.5 
L 343.337171 -67.5 
L 345.393974 -67.5 
L 347.450777 -67.5 
L 349.507579 -67.5 
L 351.564382 -67.5 
L 353.621184 -67.5 
L 355.677987 -67.5 
L 357.73479 -67.5 
L 359.791592 -67.5 
L 361.848395 -67.5 
L 363.905198 -67.5 
L 365.962 -67.5 
L 368.018803 -67.5 
L 370.075605 -67.5 
L 372.132408 -67.5 
L 374.189211 -67.5 
L 376.246013 -67.5 
L 378.302816 -67.5 
L 380.359618 -67.5 
L 382.416421 -67.5 
L 384.473224 -67.5 
L 386.530026 -67.5 
L 388.586829 -67.5 
L 390.643632 -67.5 
L 392.700434 -67.5 
L 394.757237 -67.5 
L 396.814039 -67.5 
L 398.870842 -67.5 
L 400.927645 -67.5 
L 402.984447 -67.5 
L 405.04125 -67.5 
L 407.098053 -67.5 
L 409.154855 -67.5 
L 411.211658 -67.5 
L 413.26846 -67.5 
L 415.325263 -67.5 
L 417.382066 -67.5 
L 419.438868 -67.5 
L 421.495671 -67.5 
L 423.552474 -67.5 
L 425.609276 -67.5 
L 427.666079 -67.5 
L 429.722881 -67.5 
L 431.779684 -67.5 
L 433.836487 -67.5 
L 435.893289 -67.5 
L 437.950092 -67.5 
L 440.006894 -67.5 
L 442.063697 -67.5 
L 444.1205 -67.5 
L 446.177302 -67.5 
L 448.234105 -67.5 
L 450.290908 -67.5 
L 452.34771 -67.5 
L 454.404513 -67.5 
L 456.461315 -67.5 
L 458.518118 -67.5 
L 460.574921 -67.5 
L 462.631723 -67.5 
L 464.688526 -67.5 
L 466.745329 -67.5 
L 468.802131 -67.5 
L 470.858934 -67.5 
L 472.915736 -67.5 
L 474.972539 -67.5 
L 477.029342 -67.5 
L 479.086144 -67.5 
L 481.142947 -67.5 
L 483.199749 -67.5 
L 485.256552 -67.5 
L 487.313355 -67.5 
L 489.370157 -67.5 
L 491.42696 -67.5 
L 493.483763 -67.5 
L 495.540565 -67.5 
L 497.597368 -67.5 
L 499.65417 -67.5 
L 501.710973 -67.5 
L 503.767776 -67.5 
L 505.824578 -67.5 
L 507.881381 -67.5 
L 509.938184 -67.5 
L 511.994986 -67.5 
L 514.051789 -67.5 
L 516.108591 -67.5 
L 518.165394 -67.5 
L 520.222197 -67.5 
L 522.278999 -67.5 
L 524.335802 -67.5 
L 526.392605 -67.5 
L 528.449407 -67.5 
L 530.50621 -67.5 
L 532.563012 -67.5 
L 534.619815 -67.5 
L 536.676618 -67.5 
L 538.73342 -67.5 
L 540.790223 -67.5 
L 542.847025 -67.5 
L 544.903828 -67.5 
L 546.960631 -67.5 
L 549.017433 -67.5 
L 551.074236 -67.5 
L 553.131039 -67.5 
L 555.187841 -67.5 
L 557.244644 -67.5 
L 559.301446 -67.5 
L 561.358249 -67.5 
L 563.415052 -67.5 
L 565.471854 -67.5 
L 567.528657 -67.5 
L 569.58546 -67.5 
L 571.642262 -67.5 
L 573.699065 -67.5 
L 575.755867 -67.5 
L 577.81267 -67.5 
L 579.869473 -67.5 
L 581.926275 -67.5 
L 583.983078 -67.5 
L 586.039881 -67.5 
L 588.096683 -67.5 
L 590.153486 -67.5 
L 592.210288 -67.5 
L 594.267091 -67.5 
L 596.323894 -67.5 
L 598.380696 -67.5 
L 600.437499 -67.5 
L 602.494301 -67.5 
L 604.551104 -67.5 
L 606.607907 -67.5 
L 606.607907 -67.517444 
L 606.607907 -67.517444 
L 604.551104 -67.529319 
L 602.494301 -67.548019 
L 600.437499 -67.57665 
L 598.380696 -67.619272 
L 596.323894 -67.680955 
L 594.267091 -67.767723 
L 592.210288 -67.886337 
L 590.153486 -68.04386 
L 588.096683 -68.247006 
L 586.039881 -68.501286 
L 583.983078 -68.810002 
L 581.926275 -69.173249 
L 579.869473 -69.587056 
L 577.81267 -70.042905 
L 575.755867 -70.527774 
L 573.699065 -71.024867 
L 571.642262 -71.515035 
L 569.58546 -71.978782 
L 567.528657 -72.398604 
L 565.471854 -72.761287 
L 563.415052 -73.059759 
L 561.358249 -73.294113 
L 559.301446 -73.471577 
L 557.244644 -73.605402 
L 555.187841 -73.71285 
L 553.131039 -73.812691 
L 551.074236 -73.922672 
L 549.017433 -74.057444 
L 546.960631 -74.22727 
L 544.903828 -74.437648 
L 542.847025 -74.689754 
L 540.790223 -74.981446 
L 538.73342 -75.308477 
L 536.676618 -75.665596 
L 534.619815 -76.047334 
L 532.563012 -76.448391 
L 530.50621 -76.863724 
L 528.449407 -77.288479 
L 526.392605 -77.717969 
L 524.335802 -78.147822 
L 522.278999 -78.574392 
L 520.222197 -78.995382 
L 518.165394 -79.410607 
L 516.108591 -79.822754 
L 514.051789 -80.238007 
L 511.994986 -80.666388 
L 509.938184 -81.121711 
L 507.881381 -81.621035 
L 505.824578 -82.183568 
L 503.767776 -82.828989 
L 501.710973 -83.575276 
L 499.65417 -84.4362 
L 497.597368 -85.418805 
L 495.540565 -86.521259 
L 493.483763 -87.731538 
L 491.42696 -89.027336 
L 489.370157 -90.377461 
L 487.313355 -91.744728 
L 485.256552 -93.090091 
L 483.199749 -94.377482 
L 481.142947 -95.578671 
L 479.086144 -96.677378 
L 477.029342 -97.672037 
L 474.972539 -98.576805 
L 472.915736 -99.420785 
L 470.858934 -100.245746 
L 468.802131 -101.102894 
L 466.745329 -102.049332 
L 464.688526 -103.144822 
L 462.631723 -104.449206 
L 460.574921 -106.020544 
L 458.518118 -107.913719 
L 456.461315 -110.179042 
L 454.404513 -112.86036 
L 452.34771 -115.992305 
L 450.290908 -119.59668 
L 448.234105 -123.678337 
L 446.177302 -128.221311 
L 444.1205 -133.186183 
L 442.063697 -138.509664 
L 440.006894 -144.107159 
L 437.950092 -149.878577 
L 435.893289 -155.717076 
L 433.836487 -161.519764 
L 431.779684 -167.19887 
L 429.722881 -172.691582 
L 427.666079 -177.966806 
L 425.609276 -183.027465 
L 423.552474 -187.907689 
L 421.495671 -192.665195 
L 419.438868 -197.370089 
L 417.382066 -202.092155 
L 415.325263 -206.889094 
L 413.26846 -211.798105 
L 411.211658 -216.83258 
L 409.154855 -221.984643 
L 407.098053 -227.233011 
L 405.04125 -232.554461 
L 402.984447 -237.936339 
L 400.927645 -243.387246 
L 398.870842 -248.943347 
L 396.814039 -254.668622 
L 394.757237 -260.648578 
L 392.700434 -266.978276 
L 390.643632 -273.746671 
L 388.586829 -281.020003 
L 386.530026 -288.827238 
L 384.473224 -297.150225 
L 382.416421 -305.92048 
L 380.359618 -315.023387 
L 378.302816 -324.309351 
L 376.246013 -333.610258 
L 374.189211 -342.758699 
L 372.132408 -351.606928 
L 370.075605 -360.042576 
L 368.018803 -367.99877 
L 365.962 -375.457251 
L 363.905198 -382.444364 
L 361.848395 -389.020936 
L 359.791592 -395.267997 
L 357.73479 -401.270745 
L 355.677987 -407.103158 
L 353.621184 -412.815201 
L 351.564382 -418.423923 
L 349.507579 -423.909 
L 347.450777 -429.21266 
L 345.393974 -434.243454 
L 343.337171 -438.883073 
L 341.280369 -442.99516 
L 339.223566 -446.434964 
L 337.166763 -449.058551 
L 335.109961 -450.730344 
L 333.053158 -451.328 
L 330.996356 -450.744179 
L 328.939553 -448.885532 
L 326.88275 -445.670085 
L 324.825948 -441.024816 
L 322.769145 -434.885461 
L 320.712343 -427.200109 
L 318.65554 -417.937148 
L 316.598737 -407.096722 
L 314.541935 -394.723488 
L 312.485132 -380.917539 
L 310.428329 -365.840195 
L 308.371527 -349.712084 
L 306.314724 -332.802447 
L 304.257922 -315.410422 
L 302.201119 -297.840951 
L 300.144316 -280.379198 
L 298.087514 -263.267855 
L 296.030711 -246.691245 
L 293.973908 -230.768797 
L 291.917106 -215.558633 
L 289.860303 -201.070049 
L 287.803501 -187.28202 
L 285.746698 -174.163852 
L 283.689895 -161.69391 
L 281.633093 -149.873033 
L 279.57629 -138.730531 
L 277.519487 -128.322281 
L 275.462685 -118.722058 
L 273.405882 -110.008408 
L 271.34908 -102.25005 
L 269.292277 -95.492691 
L 267.235474 -89.749569 
L 265.178672 -84.99705 
L 263.121869 -81.175509 
L 261.065067 -78.19479 
L 259.008264 -75.942872 
L 256.951461 -74.296067 
L 254.894659 -73.129149 
L 252.837856 -72.324091 
L 250.781053 -71.776579 
L 248.724251 -71.399921 
L 246.667448 -71.126449 
L 244.610646 -70.906821 
L 242.553843 -70.707823 
L 240.49704 -70.509347 
L 238.440238 -70.301154 
L 236.383435 -70.079881 
L 234.326632 -69.846579 
L 232.26983 -69.604882 
L 230.213027 -69.359753 
L 228.156225 -69.116672 
L 226.099422 -68.881113 
L 224.042619 -68.658164 
L 221.985817 -68.45222 
L 219.929014 -68.26672 
L 217.872212 -68.103949 
L 215.815409 -67.964941 
L 213.758606 -67.849496 
L 211.701804 -67.756327 
L 209.645001 -67.683299 
L 207.588198 -67.627729 
L 205.531396 -67.58669 
L 203.474593 -67.557283 
L 201.417791 -67.536839 
L 199.360988 -67.523052 
L 197.304185 -67.514032 
z
" id="m7fa13d238a" style="stroke:#d62728;stroke-width:1.5;"/>
    </defs>
    <g clip-path="url(#p305cdb1dc2)">
     <use style="fill:#d62728;fill-opacity:0.5;stroke:#d62728;stroke-width:1.5;" x="0" xlink:href="#m7fa13d238a" y="540"/>
    </g>
   </g>
   <g id="PolyCollection_3">
    <defs>
     <path d="M 195.22696 -67.522444 
L 195.22696 -67.5 
L 198.939159 -67.5 
L 202.651358 -67.5 
L 206.363556 -67.5 
L 210.075755 -67.5 
L 213.787954 -67.5 
L 217.500153 -67.5 
L 221.212352 -67.5 
L 224.924551 -67.5 
L 228.63675 -67.5 
L 232.348949 -67.5 
L 236.061148 -67.5 
L 239.773347 -67.5 
L 243.485546 -67.5 
L 247.197745 -67.5 
L 250.909944 -67.5 
L 254.622142 -67.5 
L 258.334341 -67.5 
L 262.04654 -67.5 
L 265.758739 -67.5 
L 269.470938 -67.5 
L 273.183137 -67.5 
L 276.895336 -67.5 
L 280.607535 -67.5 
L 284.319734 -67.5 
L 288.031933 -67.5 
L 291.744132 -67.5 
L 295.456331 -67.5 
L 299.16853 -67.5 
L 302.880728 -67.5 
L 306.592927 -67.5 
L 310.305126 -67.5 
L 314.017325 -67.5 
L 317.729524 -67.5 
L 321.441723 -67.5 
L 325.153922 -67.5 
L 328.866121 -67.5 
L 332.57832 -67.5 
L 336.290519 -67.5 
L 340.002718 -67.5 
L 343.714917 -67.5 
L 347.427116 -67.5 
L 351.139314 -67.5 
L 354.851513 -67.5 
L 358.563712 -67.5 
L 362.275911 -67.5 
L 365.98811 -67.5 
L 369.700309 -67.5 
L 373.412508 -67.5 
L 377.124707 -67.5 
L 380.836906 -67.5 
L 384.549105 -67.5 
L 388.261304 -67.5 
L 391.973503 -67.5 
L 395.685702 -67.5 
L 399.3979 -67.5 
L 403.110099 -67.5 
L 406.822298 -67.5 
L 410.534497 -67.5 
L 414.246696 -67.5 
L 417.958895 -67.5 
L 421.671094 -67.5 
L 425.383293 -67.5 
L 429.095492 -67.5 
L 432.807691 -67.5 
L 436.51989 -67.5 
L 440.232089 -67.5 
L 443.944288 -67.5 
L 447.656486 -67.5 
L 451.368685 -67.5 
L 455.080884 -67.5 
L 458.793083 -67.5 
L 462.505282 -67.5 
L 466.217481 -67.5 
L 469.92968 -67.5 
L 473.641879 -67.5 
L 477.354078 -67.5 
L 481.066277 -67.5 
L 484.778476 -67.5 
L 488.490675 -67.5 
L 492.202874 -67.5 
L 495.915072 -67.5 
L 499.627271 -67.5 
L 503.33947 -67.5 
L 507.051669 -67.5 
L 510.763868 -67.5 
L 514.476067 -67.5 
L 518.188266 -67.5 
L 521.900465 -67.5 
L 525.612664 -67.5 
L 529.324863 -67.5 
L 533.037062 -67.5 
L 536.749261 -67.5 
L 540.46146 -67.5 
L 544.173658 -67.5 
L 547.885857 -67.5 
L 551.598056 -67.5 
L 555.310255 -67.5 
L 559.022454 -67.5 
L 562.734653 -67.5 
L 566.446852 -67.5 
L 570.159051 -67.5 
L 573.87125 -67.5 
L 577.583449 -67.5 
L 581.295648 -67.5 
L 585.007847 -67.5 
L 588.720046 -67.5 
L 592.432244 -67.5 
L 596.144443 -67.5 
L 599.856642 -67.5 
L 603.568841 -67.5 
L 607.28104 -67.5 
L 610.993239 -67.5 
L 614.705438 -67.5 
L 618.417637 -67.5 
L 622.129836 -67.5 
L 625.842035 -67.5 
L 629.554234 -67.5 
L 633.266433 -67.5 
L 636.978632 -67.5 
L 640.69083 -67.5 
L 644.403029 -67.5 
L 648.115228 -67.5 
L 651.827427 -67.5 
L 655.539626 -67.5 
L 659.251825 -67.5 
L 662.964024 -67.5 
L 666.676223 -67.5 
L 670.388422 -67.5 
L 674.100621 -67.5 
L 677.81282 -67.5 
L 681.525019 -67.5 
L 685.237218 -67.5 
L 688.949417 -67.5 
L 692.661615 -67.5 
L 696.373814 -67.5 
L 700.086013 -67.5 
L 703.798212 -67.5 
L 707.510411 -67.5 
L 711.22261 -67.5 
L 714.934809 -67.5 
L 718.647008 -67.5 
L 722.359207 -67.5 
L 726.071406 -67.5 
L 729.783605 -67.5 
L 733.495804 -67.5 
L 737.208003 -67.5 
L 740.920201 -67.5 
L 744.6324 -67.5 
L 748.344599 -67.5 
L 752.056798 -67.5 
L 755.768997 -67.5 
L 759.481196 -67.5 
L 763.193395 -67.5 
L 766.905594 -67.5 
L 770.617793 -67.5 
L 774.329992 -67.5 
L 778.042191 -67.5 
L 781.75439 -67.5 
L 785.466589 -67.5 
L 789.178787 -67.5 
L 792.890986 -67.5 
L 796.603185 -67.5 
L 800.315384 -67.5 
L 804.027583 -67.5 
L 807.739782 -67.5 
L 811.451981 -67.5 
L 815.16418 -67.5 
L 818.876379 -67.5 
L 822.588578 -67.5 
L 826.300777 -67.5 
L 830.012976 -67.5 
L 833.725175 -67.5 
L 837.437373 -67.5 
L 841.149572 -67.5 
L 844.861771 -67.5 
L 848.57397 -67.5 
L 852.286169 -67.5 
L 855.998368 -67.5 
L 859.710567 -67.5 
L 863.422766 -67.5 
L 867.134965 -67.5 
L 870.847164 -67.5 
L 874.559363 -67.5 
L 878.271562 -67.5 
L 881.983761 -67.5 
L 885.695959 -67.5 
L 889.408158 -67.5 
L 893.120357 -67.5 
L 896.832556 -67.5 
L 900.544755 -67.5 
L 904.256954 -67.5 
L 907.969153 -67.5 
L 911.681352 -67.5 
L 915.393551 -67.5 
L 919.10575 -67.5 
L 922.817949 -67.5 
L 926.530148 -67.5 
L 930.242347 -67.5 
L 933.954545 -67.5 
L 933.954545 -67.509773 
L 933.954545 -67.509773 
L 930.242347 -67.523497 
L 926.530148 -67.551374 
L 922.817949 -67.602142 
L 919.10575 -67.68467 
L 915.393551 -67.803609 
L 911.681352 -67.953903 
L 907.969153 -68.117079 
L 904.256954 -68.262864 
L 900.544755 -68.357595 
L 896.832556 -68.376691 
L 893.120357 -68.314969 
L 889.408158 -68.188925 
L 885.695959 -68.029627 
L 881.983761 -67.870423 
L 878.271562 -67.736154 
L 874.559363 -67.638601 
L 870.847164 -67.578588 
L 867.134965 -67.55181 
L 863.422766 -67.554688 
L 859.710567 -67.587666 
L 855.998368 -67.654833 
L 852.286169 -67.75999 
L 848.57397 -67.900548 
L 844.861771 -68.062126 
L 841.149572 -68.217617 
L 837.437373 -68.333162 
L 833.725175 -68.379775 
L 830.012976 -68.345253 
L 826.300777 -68.239878 
L 822.588578 -68.092748 
L 818.876379 -67.941217 
L 815.16418 -67.819506 
L 811.451981 -67.751622 
L 807.739782 -67.749461 
L 804.027583 -67.813386 
L 800.315384 -67.932255 
L 796.603185 -68.082822 
L 792.890986 -68.231367 
L 789.178787 -68.340422 
L 785.466589 -68.380003 
L 781.75439 -68.338423 
L 778.042191 -68.22652 
L 774.329992 -68.072511 
L 770.617793 -67.910256 
L 766.905594 -67.767336 
L 763.193395 -67.658413 
L 759.481196 -67.585359 
L 755.768997 -67.541825 
L 752.056798 -67.518636 
L 748.344599 -67.507551 
L 744.6324 -67.502782 
L 740.920201 -67.500932 
L 737.208003 -67.500284 
L 733.495804 -67.500079 
L 729.783605 -67.50002 
L 726.071406 -67.500005 
L 722.359207 -67.500001 
L 718.647008 -67.5 
L 714.934809 -67.5 
L 711.22261 -67.5 
L 707.510411 -67.5 
L 703.798212 -67.5 
L 700.086013 -67.5 
L 696.373814 -67.5 
L 692.661615 -67.5 
L 688.949417 -67.5 
L 685.237218 -67.5 
L 681.525019 -67.5 
L 677.81282 -67.5 
L 674.100621 -67.5 
L 670.388422 -67.5 
L 666.676223 -67.5 
L 662.964024 -67.5 
L 659.251825 -67.5 
L 655.539626 -67.5 
L 651.827427 -67.500002 
L 648.115228 -67.500011 
L 644.403029 -67.500048 
L 640.69083 -67.500188 
L 636.978632 -67.500668 
L 633.266433 -67.502153 
L 629.554234 -67.50632 
L 625.842035 -67.516882 
L 622.129836 -67.541035 
L 618.417637 -67.590777 
L 614.705438 -67.682755 
L 610.993239 -67.834849 
L 607.28104 -68.058388 
L 603.568841 -68.34755 
L 599.856642 -68.671174 
L 596.144443 -68.97398 
L 592.432244 -69.191255 
L 588.720046 -69.273243 
L 585.007847 -69.207756 
L 581.295648 -69.028121 
L 577.583449 -68.800855 
L 573.87125 -68.598978 
L 570.159051 -68.47477 
L 566.446852 -68.445422 
L 562.734653 -68.497558 
L 559.022454 -68.606853 
L 555.310255 -68.761525 
L 551.598056 -68.976286 
L 547.885857 -69.287691 
L 544.173658 -69.731511 
L 540.46146 -70.313465 
L 536.749261 -70.990079 
L 533.037062 -71.6725 
L 529.324863 -72.254465 
L 525.612664 -72.652835 
L 521.900465 -72.842547 
L 518.188266 -72.870964 
L 514.476067 -72.847008 
L 510.763868 -72.912126 
L 507.051669 -73.206438 
L 503.33947 -73.841565 
L 499.627271 -74.884208 
L 495.915072 -76.348057 
L 492.202874 -78.190846 
L 488.490675 -80.317299 
L 484.778476 -82.591824 
L 481.066277 -84.863278 
L 477.354078 -86.999136 
L 473.641879 -88.921521 
L 469.92968 -90.634454 
L 466.217481 -92.230817 
L 462.505282 -93.870944 
L 458.793083 -95.734776 
L 455.080884 -97.963689 
L 451.368685 -100.61805 
L 447.656486 -103.674682 
L 443.944288 -107.072976 
L 440.232089 -110.794062 
L 436.51989 -114.933181 
L 432.807691 -119.715373 
L 429.095492 -125.423587 
L 425.383293 -132.257658 
L 421.671094 -140.196648 
L 417.958895 -148.953094 
L 414.246696 -158.061712 
L 410.534497 -167.061273 
L 406.822298 -175.668558 
L 403.110099 -183.855519 
L 399.3979 -191.814053 
L 395.685702 -199.8641 
L 391.973503 -208.373133 
L 388.261304 -217.710367 
L 384.549105 -228.211542 
L 380.836906 -240.127676 
L 377.124707 -253.567438 
L 373.412508 -268.470952 
L 369.700309 -284.639102 
L 365.98811 -301.799415 
L 362.275911 -319.658164 
L 358.563712 -337.897555 
L 354.851513 -356.122083 
L 351.139314 -373.807624 
L 347.427116 -390.322883 
L 343.714917 -405.055374 
L 340.002718 -417.599321 
L 336.290519 -427.900123 
L 332.57832 -436.250382 
L 328.866121 -443.105686 
L 325.153922 -448.78951 
L 321.441723 -453.220145 
L 317.729524 -455.785714 
L 314.017325 -455.43423 
L 310.305126 -450.970325 
L 306.592927 -441.473295 
L 302.880728 -426.677773 
L 299.16853 -407.127248 
L 295.456331 -383.98527 
L 291.744132 -358.573625 
L 288.031933 -331.889926 
L 284.319734 -304.385423 
L 280.607535 -276.114021 
L 276.895336 -247.120399 
L 273.183137 -217.802108 
L 269.470938 -189.035891 
L 265.758739 -162.028661 
L 262.04654 -138.0042 
L 258.334341 -117.887595 
L 254.622142 -102.10809 
L 250.909944 -90.561895 
L 247.197745 -82.709262 
L 243.485546 -77.747152 
L 239.773347 -74.797691 
L 236.061148 -73.068055 
L 232.348949 -71.955441 
L 228.63675 -71.086126 
L 224.924551 -70.292853 
L 221.212352 -69.550117 
L 217.500153 -68.897188 
L 213.787954 -68.376868 
L 210.075755 -68.004582 
L 206.363556 -67.765597 
L 202.651358 -67.627711 
L 198.939159 -67.556052 
L 195.22696 -67.522444 
z
" id="m54c16dd462" style="stroke:#2ca02c;stroke-width:1.5;"/>
    </defs>
    <g clip-path="url(#p305cdb1dc2)">
     <use style="fill:#2ca02c;fill-opacity:0.5;stroke:#2ca02c;stroke-width:1.5;" x="0" xlink:href="#m54c16dd462" y="540"/>
    </g>
   </g>
   <g id="PolyCollection_4">
    <defs>
     <path d="M 194.43927 -67.595693 
L 194.43927 -67.5 
L 197.475847 -67.5 
L 200.512425 -67.5 
L 203.549002 -67.5 
L 206.585579 -67.5 
L 209.622157 -67.5 
L 212.658734 -67.5 
L 215.695312 -67.5 
L 218.731889 -67.5 
L 221.768466 -67.5 
L 224.805044 -67.5 
L 227.841621 -67.5 
L 230.878199 -67.5 
L 233.914776 -67.5 
L 236.951354 -67.5 
L 239.987931 -67.5 
L 243.024508 -67.5 
L 246.061086 -67.5 
L 249.097663 -67.5 
L 252.134241 -67.5 
L 255.170818 -67.5 
L 258.207395 -67.5 
L 261.243973 -67.5 
L 264.28055 -67.5 
L 267.317128 -67.5 
L 270.353705 -67.5 
L 273.390283 -67.5 
L 276.42686 -67.5 
L 279.463437 -67.5 
L 282.500015 -67.5 
L 285.536592 -67.5 
L 288.57317 -67.5 
L 291.609747 -67.5 
L 294.646324 -67.5 
L 297.682902 -67.5 
L 300.719479 -67.5 
L 303.756057 -67.5 
L 306.792634 -67.5 
L 309.829212 -67.5 
L 312.865789 -67.5 
L 315.902366 -67.5 
L 318.938944 -67.5 
L 321.975521 -67.5 
L 325.012099 -67.5 
L 328.048676 -67.5 
L 331.085253 -67.5 
L 334.121831 -67.5 
L 337.158408 -67.5 
L 340.194986 -67.5 
L 343.231563 -67.5 
L 346.268141 -67.5 
L 349.304718 -67.5 
L 352.341295 -67.5 
L 355.377873 -67.5 
L 358.41445 -67.5 
L 361.451028 -67.5 
L 364.487605 -67.5 
L 367.524182 -67.5 
L 370.56076 -67.5 
L 373.597337 -67.5 
L 376.633915 -67.5 
L 379.670492 -67.5 
L 382.70707 -67.5 
L 385.743647 -67.5 
L 388.780224 -67.5 
L 391.816802 -67.5 
L 394.853379 -67.5 
L 397.889957 -67.5 
L 400.926534 -67.5 
L 403.963111 -67.5 
L 406.999689 -67.5 
L 410.036266 -67.5 
L 413.072844 -67.5 
L 416.109421 -67.5 
L 419.145999 -67.5 
L 422.182576 -67.5 
L 425.219153 -67.5 
L 428.255731 -67.5 
L 431.292308 -67.5 
L 434.328886 -67.5 
L 437.365463 -67.5 
L 440.402041 -67.5 
L 443.438618 -67.5 
L 446.475195 -67.5 
L 449.511773 -67.5 
L 452.54835 -67.5 
L 455.584928 -67.5 
L 458.621505 -67.5 
L 461.658082 -67.5 
L 464.69466 -67.5 
L 467.731237 -67.5 
L 470.767815 -67.5 
L 473.804392 -67.5 
L 476.84097 -67.5 
L 479.877547 -67.5 
L 482.914124 -67.5 
L 485.950702 -67.5 
L 488.987279 -67.5 
L 492.023857 -67.5 
L 495.060434 -67.5 
L 498.097011 -67.5 
L 501.133589 -67.5 
L 504.170166 -67.5 
L 507.206744 -67.5 
L 510.243321 -67.5 
L 513.279899 -67.5 
L 516.316476 -67.5 
L 519.353053 -67.5 
L 522.389631 -67.5 
L 525.426208 -67.5 
L 528.462786 -67.5 
L 531.499363 -67.5 
L 534.53594 -67.5 
L 537.572518 -67.5 
L 540.609095 -67.5 
L 543.645673 -67.5 
L 546.68225 -67.5 
L 549.718828 -67.5 
L 552.755405 -67.5 
L 555.791982 -67.5 
L 558.82856 -67.5 
L 561.865137 -67.5 
L 564.901715 -67.5 
L 567.938292 -67.5 
L 570.974869 -67.5 
L 574.011447 -67.5 
L 577.048024 -67.5 
L 580.084602 -67.5 
L 583.121179 -67.5 
L 586.157757 -67.5 
L 589.194334 -67.5 
L 592.230911 -67.5 
L 595.267489 -67.5 
L 598.304066 -67.5 
L 601.340644 -67.5 
L 604.377221 -67.5 
L 607.413798 -67.5 
L 610.450376 -67.5 
L 613.486953 -67.5 
L 616.523531 -67.5 
L 619.560108 -67.5 
L 622.596686 -67.5 
L 625.633263 -67.5 
L 628.66984 -67.5 
L 631.706418 -67.5 
L 634.742995 -67.5 
L 637.779573 -67.5 
L 640.81615 -67.5 
L 643.852727 -67.5 
L 646.889305 -67.5 
L 649.925882 -67.5 
L 652.96246 -67.5 
L 655.999037 -67.5 
L 659.035615 -67.5 
L 662.072192 -67.5 
L 665.108769 -67.5 
L 668.145347 -67.5 
L 671.181924 -67.5 
L 674.218502 -67.5 
L 677.255079 -67.5 
L 680.291656 -67.5 
L 683.328234 -67.5 
L 686.364811 -67.5 
L 689.401389 -67.5 
L 692.437966 -67.5 
L 695.474544 -67.5 
L 698.511121 -67.5 
L 701.547698 -67.5 
L 704.584276 -67.5 
L 707.620853 -67.5 
L 710.657431 -67.5 
L 713.694008 -67.5 
L 716.730585 -67.5 
L 719.767163 -67.5 
L 722.80374 -67.5 
L 725.840318 -67.5 
L 728.876895 -67.5 
L 731.913473 -67.5 
L 734.95005 -67.5 
L 737.986627 -67.5 
L 741.023205 -67.5 
L 744.059782 -67.5 
L 747.09636 -67.5 
L 750.132937 -67.5 
L 753.169514 -67.5 
L 756.206092 -67.5 
L 759.242669 -67.5 
L 762.279247 -67.5 
L 765.315824 -67.5 
L 768.352402 -67.5 
L 771.388979 -67.5 
L 774.425556 -67.5 
L 777.462134 -67.5 
L 780.498711 -67.5 
L 783.535289 -67.5 
L 786.571866 -67.5 
L 789.608443 -67.5 
L 792.645021 -67.5 
L 795.681598 -67.5 
L 798.718176 -67.5 
L 798.718176 -67.508877 
L 798.718176 -67.508877 
L 795.681598 -67.518156 
L 792.645021 -67.534907 
L 789.608443 -67.563081 
L 786.571866 -67.60715 
L 783.535289 -67.671077 
L 780.498711 -67.756741 
L 777.462134 -67.862164 
L 774.425556 -67.980199 
L 771.388979 -68.09847 
L 768.352402 -68.201082 
L 765.315824 -68.271972 
L 762.279247 -68.298987 
L 759.242669 -68.277291 
L 756.206092 -68.210777 
L 753.169514 -68.110926 
L 750.132937 -67.993571 
L 747.09636 -67.874814 
L 744.059782 -67.76754 
L 741.023205 -67.679501 
L 737.986627 -67.613201 
L 734.95005 -67.567103 
L 731.913473 -67.537388 
L 728.876895 -67.519581 
L 725.840318 -67.509639 
L 722.80374 -67.504461 
L 719.767163 -67.501942 
L 716.730585 -67.500799 
L 713.694008 -67.500324 
L 710.657431 -67.500169 
L 707.620853 -67.500207 
L 704.584276 -67.500471 
L 701.547698 -67.501166 
L 698.511121 -67.502773 
L 695.474544 -67.50621 
L 692.437966 -67.513075 
L 689.401389 -67.52588 
L 686.364811 -67.548147 
L 683.328234 -67.584197 
L 680.291656 -67.638396 
L 677.255079 -67.713824 
L 674.218502 -67.810524 
L 671.181924 -67.923877 
L 668.145347 -68.043864 
L 665.108769 -68.155917 
L 662.072192 -68.243561 
L 659.035615 -68.292321 
L 655.999037 -68.293642 
L 652.96246 -68.247396 
L 649.925882 -68.16201 
L 646.889305 -68.05221 
L 643.852727 -67.93534 
L 640.81615 -67.827702 
L 637.779573 -67.742134 
L 634.742995 -67.687347 
L 631.706418 -67.668641 
L 628.66984 -67.689149 
L 625.633263 -67.750655 
L 622.596686 -67.853502 
L 619.560108 -67.995676 
L 616.523531 -68.171737 
L 613.486953 -68.372473 
L 610.450376 -68.585934 
L 607.413798 -68.799943 
L 604.377221 -69.005446 
L 601.340644 -69.19951 
L 598.304066 -69.386706 
L 595.267489 -69.578036 
L 592.230911 -69.787447 
L 589.194334 -70.02699 
L 586.157757 -70.302334 
L 583.121179 -70.61044 
L 580.084602 -70.940376 
L 577.048024 -71.277056 
L 574.011447 -71.606384 
L 570.974869 -71.919756 
L 567.938292 -72.216226 
L 564.901715 -72.50178 
L 561.865137 -72.786504 
L 558.82856 -73.081311 
L 555.791982 -73.396026 
L 552.755405 -73.739958 
L 549.718828 -74.124956 
L 546.68225 -74.569675 
L 543.645673 -75.102805 
L 540.609095 -75.762719 
L 537.572518 -76.591754 
L 534.53594 -77.625234 
L 531.499363 -78.877973 
L 528.462786 -80.333308 
L 525.426208 -81.94034 
L 522.389631 -83.62321 
L 519.353053 -85.302169 
L 516.316476 -86.921421 
L 513.279899 -88.475173 
L 510.243321 -90.022681 
L 507.206744 -91.685693 
L 504.170166 -93.626916 
L 501.133589 -96.014287 
L 498.097011 -98.980911 
L 495.060434 -102.592719 
L 492.023857 -106.833961 
L 488.987279 -111.615027 
L 485.950702 -116.799499 
L 482.914124 -122.240828 
L 479.877547 -127.816396 
L 476.84097 -133.449235 
L 473.804392 -139.114148 
L 470.767815 -144.831998 
L 467.731237 -150.659843 
L 464.69466 -156.683106 
L 461.658082 -163.010522 
L 458.621505 -169.766972 
L 455.584928 -177.077911 
L 452.54835 -185.043419 
L 449.511773 -193.707849 
L 446.475195 -203.037403 
L 443.438618 -212.918487 
L 440.402041 -223.182748 
L 437.365463 -233.653211 
L 434.328886 -244.195345 
L 431.292308 -254.752844 
L 428.255731 -265.353246 
L 425.219153 -276.081374 
L 422.182576 -287.032803 
L 419.145999 -298.267954 
L 416.109421 -309.785693 
L 413.072844 -321.524781 
L 410.036266 -333.388209 
L 406.999689 -345.275799 
L 403.963111 -357.108 
L 400.926534 -368.827936 
L 397.889957 -380.376704 
L 394.853379 -391.646329 
L 391.816802 -402.42421 
L 388.780224 -412.350522 
L 385.743647 -420.912383 
L 382.70707 -427.491782 
L 379.670492 -431.46732 
L 376.633915 -432.34763 
L 373.597337 -429.896976 
L 370.56076 -424.210535 
L 367.524182 -415.711473 
L 364.487605 -405.068199 
L 361.451028 -393.056274 
L 358.41445 -380.404741 
L 355.377873 -367.666844 
L 352.341295 -355.143269 
L 349.304718 -342.868918 
L 346.268141 -330.658138 
L 343.231563 -318.19175 
L 340.194986 -305.123234 
L 337.158408 -291.180473 
L 334.121831 -276.242873 
L 331.085253 -260.380378 
L 328.048676 -243.849554 
L 325.012099 -227.050923 
L 321.975521 -210.459396 
L 318.938944 -194.54461 
L 315.902366 -179.699078 
L 312.865789 -166.18918 
L 309.829212 -154.137305 
L 306.792634 -143.534757 
L 303.756057 -134.276866 
L 300.719479 -126.207145 
L 297.682902 -119.157936 
L 294.646324 -112.979829 
L 291.609747 -107.558295 
L 288.57317 -102.819849 
L 285.536592 -98.730447 
L 282.500015 -95.287039 
L 279.463437 -92.502187 
L 276.42686 -90.38329 
L 273.390283 -88.911445 
L 270.353705 -88.027627 
L 267.317128 -87.63279 
L 264.28055 -87.603234 
L 261.243973 -87.81531 
L 258.207395 -88.168257 
L 255.170818 -88.593735 
L 252.134241 -89.04648 
L 249.097663 -89.479878 
L 246.061086 -89.818932 
L 243.024508 -89.946334 
L 239.987931 -89.712947 
L 236.951354 -88.973148 
L 233.914776 -87.633004 
L 230.878199 -85.691518 
L 227.841621 -83.256463 
L 224.805044 -80.526553 
L 221.768466 -77.745885 
L 218.731889 -75.147636 
L 215.695312 -72.906745 
L 212.658734 -71.115338 
L 209.622157 -69.78396 
L 206.585579 -68.862032 
L 203.549002 -68.266231 
L 200.512425 -67.906425 
L 197.475847 -67.703174 
L 194.43927 -67.595693 
z
" id="m3a9d6e95e5" style="stroke:#ff7f0e;stroke-width:1.5;"/>
    </defs>
    <g clip-path="url(#p305cdb1dc2)">
     <use style="fill:#ff7f0e;fill-opacity:0.5;stroke:#ff7f0e;stroke-width:1.5;" x="0" xlink:href="#m3a9d6e95e5" y="540"/>
    </g>
   </g>
   <g id="PolyCollection_5">
    <defs>
     <path d="M 173.045455 -67.59713 
L 173.045455 -67.5 
L 176.618537 -67.5 
L 180.191619 -67.5 
L 183.764701 -67.5 
L 187.337783 -67.5 
L 190.910865 -67.5 
L 194.483948 -67.5 
L 198.05703 -67.5 
L 201.630112 -67.5 
L 205.203194 -67.5 
L 208.776276 -67.5 
L 212.349358 -67.5 
L 215.922441 -67.5 
L 219.495523 -67.5 
L 223.068605 -67.5 
L 226.641687 -67.5 
L 230.214769 -67.5 
L 233.787852 -67.5 
L 237.360934 -67.5 
L 240.934016 -67.5 
L 244.507098 -67.5 
L 248.08018 -67.5 
L 251.653262 -67.5 
L 255.226345 -67.5 
L 258.799427 -67.5 
L 262.372509 -67.5 
L 265.945591 -67.5 
L 269.518673 -67.5 
L 273.091755 -67.5 
L 276.664838 -67.5 
L 280.23792 -67.5 
L 283.811002 -67.5 
L 287.384084 -67.5 
L 290.957166 -67.5 
L 294.530249 -67.5 
L 298.103331 -67.5 
L 301.676413 -67.5 
L 305.249495 -67.5 
L 308.822577 -67.5 
L 312.395659 -67.5 
L 315.968742 -67.5 
L 319.541824 -67.5 
L 323.114906 -67.5 
L 326.687988 -67.5 
L 330.26107 -67.5 
L 333.834152 -67.5 
L 337.407235 -67.5 
L 340.980317 -67.5 
L 344.553399 -67.5 
L 348.126481 -67.5 
L 351.699563 -67.5 
L 355.272645 -67.5 
L 358.845728 -67.5 
L 362.41881 -67.5 
L 365.991892 -67.5 
L 369.564974 -67.5 
L 373.138056 -67.5 
L 376.711139 -67.5 
L 380.284221 -67.5 
L 383.857303 -67.5 
L 387.430385 -67.5 
L 391.003467 -67.5 
L 394.576549 -67.5 
L 398.149632 -67.5 
L 401.722714 -67.5 
L 405.295796 -67.5 
L 408.868878 -67.5 
L 412.44196 -67.5 
L 416.015042 -67.5 
L 419.588125 -67.5 
L 423.161207 -67.5 
L 426.734289 -67.5 
L 430.307371 -67.5 
L 433.880453 -67.5 
L 437.453536 -67.5 
L 441.026618 -67.5 
L 444.5997 -67.5 
L 448.172782 -67.5 
L 451.745864 -67.5 
L 455.318946 -67.5 
L 458.892029 -67.5 
L 462.465111 -67.5 
L 466.038193 -67.5 
L 469.611275 -67.5 
L 473.184357 -67.5 
L 476.757439 -67.5 
L 480.330522 -67.5 
L 483.903604 -67.5 
L 487.476686 -67.5 
L 491.049768 -67.5 
L 494.62285 -67.5 
L 498.195933 -67.5 
L 501.769015 -67.5 
L 505.342097 -67.5 
L 508.915179 -67.5 
L 512.488261 -67.5 
L 516.061343 -67.5 
L 519.634426 -67.5 
L 523.207508 -67.5 
L 526.78059 -67.5 
L 530.353672 -67.5 
L 533.926754 -67.5 
L 537.499836 -67.5 
L 541.072919 -67.5 
L 544.646001 -67.5 
L 548.219083 -67.5 
L 551.792165 -67.5 
L 555.365247 -67.5 
L 558.938329 -67.5 
L 562.511412 -67.5 
L 566.084494 -67.5 
L 569.657576 -67.5 
L 573.230658 -67.5 
L 576.80374 -67.5 
L 580.376823 -67.5 
L 583.949905 -67.5 
L 587.522987 -67.5 
L 591.096069 -67.5 
L 594.669151 -67.5 
L 598.242233 -67.5 
L 601.815316 -67.5 
L 605.388398 -67.5 
L 608.96148 -67.5 
L 612.534562 -67.5 
L 616.107644 -67.5 
L 619.680726 -67.5 
L 623.253809 -67.5 
L 626.826891 -67.5 
L 630.399973 -67.5 
L 633.973055 -67.5 
L 637.546137 -67.5 
L 641.11922 -67.5 
L 644.692302 -67.5 
L 648.265384 -67.5 
L 651.838466 -67.5 
L 655.411548 -67.5 
L 658.98463 -67.5 
L 662.557713 -67.5 
L 666.130795 -67.5 
L 669.703877 -67.5 
L 673.276959 -67.5 
L 676.850041 -67.5 
L 680.423123 -67.5 
L 683.996206 -67.5 
L 687.569288 -67.5 
L 691.14237 -67.5 
L 694.715452 -67.5 
L 698.288534 -67.5 
L 701.861617 -67.5 
L 705.434699 -67.5 
L 709.007781 -67.5 
L 712.580863 -67.5 
L 716.153945 -67.5 
L 719.727027 -67.5 
L 723.30011 -67.5 
L 726.873192 -67.5 
L 730.446274 -67.5 
L 734.019356 -67.5 
L 737.592438 -67.5 
L 741.16552 -67.5 
L 744.738603 -67.5 
L 748.311685 -67.5 
L 751.884767 -67.5 
L 755.457849 -67.5 
L 759.030931 -67.5 
L 762.604013 -67.5 
L 766.177096 -67.5 
L 769.750178 -67.5 
L 773.32326 -67.5 
L 776.896342 -67.5 
L 780.469424 -67.5 
L 784.042507 -67.5 
L 787.615589 -67.5 
L 791.188671 -67.5 
L 794.761753 -67.5 
L 798.334835 -67.5 
L 801.907917 -67.5 
L 805.481 -67.5 
L 809.054082 -67.5 
L 812.627164 -67.5 
L 816.200246 -67.5 
L 819.773328 -67.5 
L 823.34641 -67.5 
L 826.919493 -67.5 
L 830.492575 -67.5 
L 834.065657 -67.5 
L 837.638739 -67.5 
L 841.211821 -67.5 
L 844.784904 -67.5 
L 848.357986 -67.5 
L 851.931068 -67.5 
L 855.50415 -67.5 
L 859.077232 -67.5 
L 862.650314 -67.5 
L 866.223397 -67.5 
L 869.796479 -67.5 
L 873.369561 -67.5 
L 876.942643 -67.5 
L 880.515725 -67.5 
L 884.088807 -67.5 
L 884.088807 -67.523369 
L 884.088807 -67.523369 
L 880.515725 -67.539952 
L 876.942643 -67.56602 
L 873.369561 -67.605447 
L 869.796479 -67.662789 
L 866.223397 -67.742908 
L 862.650314 -67.850336 
L 859.077232 -67.988379 
L 855.50415 -68.158045 
L 851.931068 -68.357002 
L 848.357986 -68.578787 
L 844.784904 -68.812553 
L 841.211821 -69.043567 
L 837.638739 -69.254532 
L 834.065657 -69.427634 
L 830.492575 -69.546988 
L 826.919493 -69.601036 
L 823.34641 -69.58439 
L 819.773328 -69.498719 
L 816.200246 -69.352474 
L 812.627164 -69.15951 
L 809.054082 -68.936928 
L 805.481 -68.702589 
L 801.907917 -68.472808 
L 798.334835 -68.260614 
L 794.761753 -68.074816 
L 791.188671 -67.919876 
L 787.615589 -67.796443 
L 784.042507 -67.702297 
L 780.469424 -67.633435 
L 776.896342 -67.585074 
L 773.32326 -67.552436 
L 769.750178 -67.53126 
L 766.177096 -67.518063 
L 762.604013 -67.510203 
L 759.030931 -67.505818 
L 755.457849 -67.503719 
L 751.884767 -67.50328 
L 748.311685 -67.504362 
L 744.738603 -67.507302 
L 741.16552 -67.512951 
L 737.592438 -67.522769 
L 734.019356 -67.538945 
L 730.446274 -67.564503 
L 726.873192 -67.603333 
L 723.30011 -67.660088 
L 719.727027 -67.739866 
L 716.153945 -67.847656 
L 712.580863 -67.987546 
L 709.007781 -68.161791 
L 705.434699 -68.369905 
L 701.861617 -68.607997 
L 698.288534 -68.868595 
L 694.715452 -69.141102 
L 691.14237 -69.412919 
L 687.569288 -69.67106 
L 683.996206 -69.903928 
L 680.423123 -70.102805 
L 676.850041 -70.262667 
L 673.276959 -70.382097 
L 669.703877 -70.462321 
L 666.130795 -70.505703 
L 662.557713 -70.514186 
L 658.98463 -70.488214 
L 655.411548 -70.426496 
L 651.838466 -70.326701 
L 648.265384 -70.186835 
L 644.692302 -70.006846 
L 641.11922 -69.789908 
L 637.546137 -69.542964 
L 633.973055 -69.276347 
L 630.399973 -69.002587 
L 626.826891 -68.734727 
L 623.253809 -68.484597 
L 619.680726 -68.261447 
L 616.107644 -68.071209 
L 612.534562 -67.916467 
L 608.96148 -67.797062 
L 605.388398 -67.711142 
L 601.815316 -67.656444 
L 598.242233 -67.631626 
L 594.669151 -67.637523 
L 591.096069 -67.67824 
L 587.522987 -67.762049 
L 583.949905 -67.902 
L 580.376823 -68.116183 
L 576.80374 -68.427484 
L 573.230658 -68.862735 
L 569.657576 -69.451138 
L 566.084494 -70.221995 
L 562.511412 -71.201883 
L 558.938329 -72.411581 
L 555.365247 -73.863192 
L 551.792165 -75.557935 
L 548.219083 -77.48505 
L 544.646001 -79.622066 
L 541.072919 -81.936472 
L 537.499836 -84.388525 
L 533.926754 -86.93476 
L 530.353672 -89.531657 
L 526.78059 -92.138978 
L 523.207508 -94.722448 
L 519.634426 -97.255676 
L 516.061343 -99.721365 
L 512.488261 -102.111943 
L 508.915179 -104.429744 
L 505.342097 -106.686737 
L 501.769015 -108.903821 
L 498.195933 -111.109716 
L 494.62285 -113.339667 
L 491.049768 -115.634328 
L 487.476686 -118.039291 
L 483.903604 -120.605549 
L 480.330522 -123.390767 
L 476.757439 -126.460679 
L 473.184357 -129.88944 
L 469.611275 -133.757601 
L 466.038193 -138.146723 
L 462.465111 -143.130551 
L 458.892029 -148.763854 
L 455.318946 -155.071176 
L 451.745864 -162.038392 
L 448.172782 -169.60986 
L 444.5997 -177.692922 
L 441.026618 -186.169922 
L 437.453536 -194.916025 
L 433.880453 -203.819614 
L 430.307371 -212.80118 
L 426.734289 -221.826737 
L 423.161207 -230.912739 
L 419.588125 -240.121086 
L 416.015042 -249.544637 
L 412.44196 -259.285422 
L 408.868878 -269.42913 
L 405.295796 -280.020162 
L 401.722714 -291.041594 
L 398.149632 -302.403536 
L 394.576549 -313.941958 
L 391.003467 -325.428059 
L 387.430385 -336.586281 
L 383.857303 -347.117492 
L 380.284221 -356.723094 
L 376.711139 -365.126088 
L 373.138056 -372.086345 
L 369.564974 -377.409113 
L 365.991892 -380.947501 
L 362.41881 -382.600915 
L 358.845728 -382.311664 
L 355.272645 -380.061514 
L 351.699563 -375.868915 
L 348.126481 -369.786729 
L 344.553399 -361.899773 
L 340.980317 -352.321623 
L 337.407235 -341.190737 
L 333.834152 -328.666593 
L 330.26107 -314.926845 
L 326.687988 -300.166254 
L 323.114906 -284.597338 
L 319.541824 -268.451744 
L 315.968742 -251.980595 
L 312.395659 -235.451946 
L 308.822577 -219.144095 
L 305.249495 -203.33461 
L 301.676413 -188.286232 
L 298.103331 -174.231831 
L 294.530249 -161.360939 
L 290.957166 -149.810069 
L 287.384084 -139.65805 
L 283.811002 -130.926447 
L 280.23792 -123.584071 
L 276.664838 -117.554005 
L 273.091755 -112.721542 
L 269.518673 -108.941937 
L 265.945591 -106.047621 
L 262.372509 -103.855192 
L 258.799427 -102.172898 
L 255.226345 -100.809256 
L 251.653262 -99.583003 
L 248.08018 -98.333895 
L 244.507098 -96.933227 
L 240.934016 -95.292511 
L 237.360934 -93.368744 
L 233.787852 -91.165064 
L 230.214769 -88.726333 
L 226.641687 -86.130085 
L 223.068605 -83.474116 
L 219.495523 -80.862603 
L 215.922441 -78.392881 
L 212.349358 -76.144746 
L 208.776276 -74.173591 
L 205.203194 -72.507871 
L 201.630112 -71.150573 
L 198.05703 -70.083713 
L 194.483948 -69.274567 
L 190.910865 -68.682277 
L 187.337783 -68.263764 
L 183.764701 -67.978262 
L 180.191619 -67.790208 
L 176.618537 -67.670597 
L 173.045455 -67.59713 
z
" id="m116c72b038" style="stroke:#1f77b4;stroke-width:1.5;"/>
    </defs>
    <g clip-path="url(#p305cdb1dc2)">
     <use style="fill:#1f77b4;fill-opacity:0.5;stroke:#1f77b4;stroke-width:1.5;" x="0" xlink:href="#m116c72b038" y="540"/>
    </g>
   </g>
   <g id="patch_3">
    <path d="M 135 472.5 
L 135 64.8 
" style="fill:none;stroke:#ffffff;stroke-linecap:square;stroke-linejoin:miter;stroke-width:1.25;"/>
   </g>
   <g id="patch_4">
    <path d="M 972 472.5 
L 972 64.8 
" style="fill:none;stroke:#ffffff;stroke-linecap:square;stroke-linejoin:miter;stroke-width:1.25;"/>
   </g>
   <g id="patch_5">
    <path d="M 135 472.5 
L 972 472.5 
" style="fill:none;stroke:#ffffff;stroke-linecap:square;stroke-linejoin:miter;stroke-width:1.25;"/>
   </g>
   <g id="patch_6">
    <path d="M 135 64.8 
L 972 64.8 
" style="fill:none;stroke:#ffffff;stroke-linecap:square;stroke-linejoin:miter;stroke-width:1.25;"/>
   </g>
   <g id="legend_1">
    <g id="patch_7">
     <path d="M 863.077656 168.014219 
L 964.3 168.014219 
Q 966.5 168.014219 966.5 165.814219 
L 966.5 72.5 
Q 966.5 70.3 964.3 70.3 
L 863.077656 70.3 
Q 860.877656 70.3 860.877656 72.5 
L 860.877656 165.814219 
Q 860.877656 168.014219 863.077656 168.014219 
z
" style="fill:#eaeaf2;opacity:0.8;stroke:#cccccc;stroke-linejoin:miter;"/>
    </g>
    <g id="text_20">
     <!-- regiao -->
     <g style="fill:#262626;" transform="translate(897.011641 83.289375)scale(0.12 -0.12)">
      <defs>
       <path d="M 42.09375 16.703125 
L 51.171875 15.578125 
Q 49.03125 7.625 43.21875 3.21875 
Q 37.40625 -1.171875 28.375 -1.171875 
Q 17 -1.171875 10.328125 5.828125 
Q 3.65625 12.84375 3.65625 25.484375 
Q 3.65625 38.578125 10.390625 45.796875 
Q 17.140625 53.03125 27.875 53.03125 
Q 38.28125 53.03125 44.875 45.953125 
Q 51.46875 38.875 51.46875 26.03125 
Q 51.46875 25.25 51.421875 23.6875 
L 12.75 23.6875 
Q 13.234375 15.140625 17.578125 10.59375 
Q 21.921875 6.0625 28.421875 6.0625 
Q 33.25 6.0625 36.671875 8.59375 
Q 40.09375 11.140625 42.09375 16.703125 
z
M 13.234375 30.90625 
L 42.1875 30.90625 
Q 41.609375 37.453125 38.875 40.71875 
Q 34.671875 45.796875 27.984375 45.796875 
Q 21.921875 45.796875 17.796875 41.75 
Q 13.671875 37.703125 13.234375 30.90625 
z
" id="ArialMT-101"/>
       <path d="M 4.984375 -4.296875 
L 13.53125 -5.5625 
Q 14.0625 -9.515625 16.5 -11.328125 
Q 19.78125 -13.765625 25.4375 -13.765625 
Q 31.546875 -13.765625 34.859375 -11.328125 
Q 38.1875 -8.890625 39.359375 -4.5 
Q 40.046875 -1.8125 39.984375 6.78125 
Q 34.234375 0 25.640625 0 
Q 14.9375 0 9.078125 7.71875 
Q 3.21875 15.4375 3.21875 26.21875 
Q 3.21875 33.640625 5.90625 39.90625 
Q 8.59375 46.1875 13.6875 49.609375 
Q 18.796875 53.03125 25.6875 53.03125 
Q 34.859375 53.03125 40.828125 45.609375 
L 40.828125 51.859375 
L 48.921875 51.859375 
L 48.921875 7.03125 
Q 48.921875 -5.078125 46.453125 -10.125 
Q 44 -15.1875 38.640625 -18.109375 
Q 33.296875 -21.046875 25.484375 -21.046875 
Q 16.21875 -21.046875 10.5 -16.875 
Q 4.78125 -12.703125 4.984375 -4.296875 
z
M 12.25 26.859375 
Q 12.25 16.65625 16.296875 11.96875 
Q 20.359375 7.28125 26.46875 7.28125 
Q 32.515625 7.28125 36.609375 11.9375 
Q 40.71875 16.609375 40.71875 26.5625 
Q 40.71875 36.078125 36.5 40.90625 
Q 32.28125 45.75 26.3125 45.75 
Q 20.453125 45.75 16.34375 40.984375 
Q 12.25 36.234375 12.25 26.859375 
z
" id="ArialMT-103"/>
      </defs>
      <use xlink:href="#ArialMT-114"/>
      <use x="33.300781" xlink:href="#ArialMT-101"/>
      <use x="88.916016" xlink:href="#ArialMT-103"/>
      <use x="144.53125" xlink:href="#ArialMT-105"/>
      <use x="166.748047" xlink:href="#ArialMT-97"/>
      <use x="222.363281" xlink:href="#ArialMT-111"/>
     </g>
    </g>
    <g id="patch_8">
     <path d="M 865.277656 99.188594 
L 887.277656 99.188594 
L 887.277656 91.488594 
L 865.277656 91.488594 
z
" style="fill:#1f77b4;fill-opacity:0.5;stroke:#1f77b4;stroke-linejoin:miter;stroke-width:1.5;"/>
    </g>
    <g id="text_21">
     <!-- Norte -->
     <g style="fill:#262626;" transform="translate(896.077656 99.188594)scale(0.11 -0.11)">
      <defs>
       <path d="M 7.625 0 
L 7.625 71.578125 
L 17.328125 71.578125 
L 54.9375 15.375 
L 54.9375 71.578125 
L 64.015625 71.578125 
L 64.015625 0 
L 54.296875 0 
L 16.703125 56.25 
L 16.703125 0 
z
" id="ArialMT-78"/>
       <path d="M 25.78125 7.859375 
L 27.046875 0.09375 
Q 23.34375 -0.6875 20.40625 -0.6875 
Q 15.625 -0.6875 12.984375 0.828125 
Q 10.359375 2.34375 9.28125 4.8125 
Q 8.203125 7.28125 8.203125 15.1875 
L 8.203125 45.015625 
L 1.765625 45.015625 
L 1.765625 51.859375 
L 8.203125 51.859375 
L 8.203125 64.703125 
L 16.9375 69.96875 
L 16.9375 51.859375 
L 25.78125 51.859375 
L 25.78125 45.015625 
L 16.9375 45.015625 
L 16.9375 14.703125 
Q 16.9375 10.9375 17.40625 9.859375 
Q 17.875 8.796875 18.921875 8.15625 
Q 19.96875 7.515625 21.921875 7.515625 
Q 23.390625 7.515625 25.78125 7.859375 
z
" id="ArialMT-116"/>
      </defs>
      <use xlink:href="#ArialMT-78"/>
      <use x="72.216797" xlink:href="#ArialMT-111"/>
      <use x="127.832031" xlink:href="#ArialMT-114"/>
      <use x="161.132812" xlink:href="#ArialMT-116"/>
      <use x="188.916016" xlink:href="#ArialMT-101"/>
     </g>
    </g>
    <g id="patch_9">
     <path d="M 865.277656 114.748438 
L 887.277656 114.748438 
L 887.277656 107.048438 
L 865.277656 107.048438 
z
" style="fill:#ff7f0e;fill-opacity:0.5;stroke:#ff7f0e;stroke-linejoin:miter;stroke-width:1.5;"/>
    </g>
    <g id="text_22">
     <!-- Nordeste -->
     <g style="fill:#262626;" transform="translate(896.077656 114.748438)scale(0.11 -0.11)">
      <defs>
       <path d="M 40.234375 0 
L 40.234375 6.546875 
Q 35.296875 -1.171875 25.734375 -1.171875 
Q 19.53125 -1.171875 14.328125 2.25 
Q 9.125 5.671875 6.265625 11.796875 
Q 3.421875 17.921875 3.421875 25.875 
Q 3.421875 33.640625 6 39.96875 
Q 8.59375 46.296875 13.765625 49.65625 
Q 18.953125 53.03125 25.34375 53.03125 
Q 30.03125 53.03125 33.6875 51.046875 
Q 37.359375 49.078125 39.65625 45.90625 
L 39.65625 71.578125 
L 48.390625 71.578125 
L 48.390625 0 
z
M 12.453125 25.875 
Q 12.453125 15.921875 16.640625 10.984375 
Q 20.84375 6.0625 26.5625 6.0625 
Q 32.328125 6.0625 36.34375 10.765625 
Q 40.375 15.484375 40.375 25.140625 
Q 40.375 35.796875 36.265625 40.765625 
Q 32.171875 45.75 26.171875 45.75 
Q 20.3125 45.75 16.375 40.96875 
Q 12.453125 36.1875 12.453125 25.875 
z
" id="ArialMT-100"/>
      </defs>
      <use xlink:href="#ArialMT-78"/>
      <use x="72.216797" xlink:href="#ArialMT-111"/>
      <use x="127.832031" xlink:href="#ArialMT-114"/>
      <use x="161.132812" xlink:href="#ArialMT-100"/>
      <use x="216.748047" xlink:href="#ArialMT-101"/>
      <use x="272.363281" xlink:href="#ArialMT-115"/>
      <use x="322.363281" xlink:href="#ArialMT-116"/>
      <use x="350.146484" xlink:href="#ArialMT-101"/>
     </g>
    </g>
    <g id="patch_10">
     <path d="M 865.277656 130.308281 
L 887.277656 130.308281 
L 887.277656 122.608281 
L 865.277656 122.608281 
z
" style="fill:#2ca02c;fill-opacity:0.5;stroke:#2ca02c;stroke-linejoin:miter;stroke-width:1.5;"/>
    </g>
    <g id="text_23">
     <!-- Sudeste -->
     <g style="fill:#262626;" transform="translate(896.077656 130.308281)scale(0.11 -0.11)">
      <defs>
       <path d="M 4.5 23 
L 13.421875 23.78125 
Q 14.0625 18.40625 16.375 14.96875 
Q 18.703125 11.53125 23.578125 9.40625 
Q 28.46875 7.28125 34.578125 7.28125 
Q 39.984375 7.28125 44.140625 8.890625 
Q 48.296875 10.5 50.3125 13.296875 
Q 52.34375 16.109375 52.34375 19.4375 
Q 52.34375 22.796875 50.390625 25.3125 
Q 48.4375 27.828125 43.953125 29.546875 
Q 41.0625 30.671875 31.203125 33.03125 
Q 21.34375 35.40625 17.390625 37.5 
Q 12.25 40.1875 9.734375 44.15625 
Q 7.234375 48.140625 7.234375 53.078125 
Q 7.234375 58.5 10.296875 63.203125 
Q 13.375 67.921875 19.28125 70.359375 
Q 25.203125 72.796875 32.421875 72.796875 
Q 40.375 72.796875 46.453125 70.234375 
Q 52.546875 67.671875 55.8125 62.6875 
Q 59.078125 57.71875 59.328125 51.421875 
L 50.25 50.734375 
Q 49.515625 57.515625 45.28125 60.984375 
Q 41.0625 64.453125 32.8125 64.453125 
Q 24.21875 64.453125 20.28125 61.296875 
Q 16.359375 58.15625 16.359375 53.71875 
Q 16.359375 49.859375 19.140625 47.359375 
Q 21.875 44.875 33.421875 42.265625 
Q 44.96875 39.65625 49.265625 37.703125 
Q 55.515625 34.8125 58.484375 30.390625 
Q 61.46875 25.984375 61.46875 20.21875 
Q 61.46875 14.5 58.203125 9.4375 
Q 54.9375 4.390625 48.796875 1.578125 
Q 42.671875 -1.21875 35.015625 -1.21875 
Q 25.296875 -1.21875 18.71875 1.609375 
Q 12.15625 4.4375 8.421875 10.125 
Q 4.6875 15.828125 4.5 23 
z
" id="ArialMT-83"/>
       <path d="M 40.578125 0 
L 40.578125 7.625 
Q 34.515625 -1.171875 24.125 -1.171875 
Q 19.53125 -1.171875 15.546875 0.578125 
Q 11.578125 2.34375 9.640625 5 
Q 7.71875 7.671875 6.9375 11.53125 
Q 6.390625 14.109375 6.390625 19.734375 
L 6.390625 51.859375 
L 15.1875 51.859375 
L 15.1875 23.09375 
Q 15.1875 16.21875 15.71875 13.8125 
Q 16.546875 10.359375 19.234375 8.375 
Q 21.921875 6.390625 25.875 6.390625 
Q 29.828125 6.390625 33.296875 8.421875 
Q 36.765625 10.453125 38.203125 13.9375 
Q 39.65625 17.4375 39.65625 24.078125 
L 39.65625 51.859375 
L 48.4375 51.859375 
L 48.4375 0 
z
" id="ArialMT-117"/>
      </defs>
      <use xlink:href="#ArialMT-83"/>
      <use x="66.699219" xlink:href="#ArialMT-117"/>
      <use x="122.314453" xlink:href="#ArialMT-100"/>
      <use x="177.929688" xlink:href="#ArialMT-101"/>
      <use x="233.544922" xlink:href="#ArialMT-115"/>
      <use x="283.544922" xlink:href="#ArialMT-116"/>
      <use x="311.328125" xlink:href="#ArialMT-101"/>
     </g>
    </g>
    <g id="patch_11">
     <path d="M 865.277656 145.868125 
L 887.277656 145.868125 
L 887.277656 138.168125 
L 865.277656 138.168125 
z
" style="fill:#d62728;fill-opacity:0.5;stroke:#d62728;stroke-linejoin:miter;stroke-width:1.5;"/>
    </g>
    <g id="text_24">
     <!-- Sul -->
     <g style="fill:#262626;" transform="translate(896.077656 145.868125)scale(0.11 -0.11)">
      <use xlink:href="#ArialMT-83"/>
      <use x="66.699219" xlink:href="#ArialMT-117"/>
      <use x="122.314453" xlink:href="#ArialMT-108"/>
     </g>
    </g>
    <g id="patch_12">
     <path d="M 865.277656 161.427969 
L 887.277656 161.427969 
L 887.277656 153.727969 
L 865.277656 153.727969 
z
" style="fill:#9467bd;fill-opacity:0.5;stroke:#9467bd;stroke-linejoin:miter;stroke-width:1.5;"/>
    </g>
    <g id="text_25">
     <!-- Centro-Oeste -->
     <g style="fill:#262626;" transform="translate(896.077656 161.427969)scale(0.11 -0.11)">
      <defs>
       <path d="M 58.796875 25.09375 
L 68.265625 22.703125 
Q 65.28125 11.03125 57.546875 4.90625 
Q 49.8125 -1.21875 38.625 -1.21875 
Q 27.046875 -1.21875 19.796875 3.484375 
Q 12.546875 8.203125 8.765625 17.140625 
Q 4.984375 26.078125 4.984375 36.328125 
Q 4.984375 47.515625 9.25 55.828125 
Q 13.53125 64.15625 21.40625 68.46875 
Q 29.296875 72.796875 38.765625 72.796875 
Q 49.515625 72.796875 56.828125 67.328125 
Q 64.15625 61.859375 67.046875 51.953125 
L 57.71875 49.75 
Q 55.21875 57.5625 50.484375 61.125 
Q 45.75 64.703125 38.578125 64.703125 
Q 30.328125 64.703125 24.78125 60.734375 
Q 19.234375 56.78125 16.984375 50.109375 
Q 14.75 43.453125 14.75 36.375 
Q 14.75 27.25 17.40625 20.4375 
Q 20.0625 13.625 25.671875 10.25 
Q 31.296875 6.890625 37.84375 6.890625 
Q 45.796875 6.890625 51.3125 11.46875 
Q 56.84375 16.0625 58.796875 25.09375 
z
" id="ArialMT-67"/>
       <path d="M 6.59375 0 
L 6.59375 51.859375 
L 14.5 51.859375 
L 14.5 44.484375 
Q 20.21875 53.03125 31 53.03125 
Q 35.6875 53.03125 39.625 51.34375 
Q 43.5625 49.65625 45.515625 46.921875 
Q 47.46875 44.1875 48.25 40.4375 
Q 48.734375 37.984375 48.734375 31.890625 
L 48.734375 0 
L 39.9375 0 
L 39.9375 31.546875 
Q 39.9375 36.921875 38.90625 39.578125 
Q 37.890625 42.234375 35.28125 43.8125 
Q 32.671875 45.40625 29.15625 45.40625 
Q 23.53125 45.40625 19.453125 41.84375 
Q 15.375 38.28125 15.375 28.328125 
L 15.375 0 
z
" id="ArialMT-110"/>
       <path d="M 3.171875 21.484375 
L 3.171875 30.328125 
L 30.171875 30.328125 
L 30.171875 21.484375 
z
" id="ArialMT-45"/>
       <path d="M 4.828125 34.859375 
Q 4.828125 52.6875 14.390625 62.765625 
Q 23.96875 72.859375 39.109375 72.859375 
Q 49.03125 72.859375 56.984375 68.109375 
Q 64.9375 63.375 69.109375 54.90625 
Q 73.296875 46.4375 73.296875 35.6875 
Q 73.296875 24.8125 68.890625 16.21875 
Q 64.5 7.625 56.4375 3.203125 
Q 48.390625 -1.21875 39.0625 -1.21875 
Q 28.953125 -1.21875 20.984375 3.65625 
Q 13.03125 8.546875 8.921875 16.984375 
Q 4.828125 25.4375 4.828125 34.859375 
z
M 14.59375 34.71875 
Q 14.59375 21.78125 21.546875 14.328125 
Q 28.515625 6.890625 39.015625 6.890625 
Q 49.703125 6.890625 56.609375 14.40625 
Q 63.53125 21.921875 63.53125 35.75 
Q 63.53125 44.484375 60.578125 51 
Q 57.625 57.515625 51.921875 61.109375 
Q 46.234375 64.703125 39.15625 64.703125 
Q 29.109375 64.703125 21.84375 57.78125 
Q 14.59375 50.875 14.59375 34.71875 
z
" id="ArialMT-79"/>
      </defs>
      <use xlink:href="#ArialMT-67"/>
      <use x="72.216797" xlink:href="#ArialMT-101"/>
      <use x="127.832031" xlink:href="#ArialMT-110"/>
      <use x="183.447266" xlink:href="#ArialMT-116"/>
      <use x="211.230469" xlink:href="#ArialMT-114"/>
      <use x="244.53125" xlink:href="#ArialMT-111"/>
      <use x="300.146484" xlink:href="#ArialMT-45"/>
      <use x="333.447266" xlink:href="#ArialMT-79"/>
      <use x="411.230469" xlink:href="#ArialMT-101"/>
      <use x="466.845703" xlink:href="#ArialMT-115"/>
      <use x="516.845703" xlink:href="#ArialMT-116"/>
      <use x="544.628906" xlink:href="#ArialMT-101"/>
     </g>
    </g>
   </g>
  </g>
  <g id="text_26">
   <!-- Análise FINBRA 2017 -->
   <g style="fill:#262626;" transform="translate(419.103516 28.694531)scale(0.25 -0.25)">
    <defs>
     <path d="M -0.140625 0 
L 27.34375 71.578125 
L 37.546875 71.578125 
L 66.84375 0 
L 56.0625 0 
L 47.703125 21.6875 
L 17.78125 21.6875 
L 9.90625 0 
z
M 20.515625 29.390625 
L 44.78125 29.390625 
L 37.3125 49.21875 
Q 33.890625 58.25 32.234375 64.0625 
Q 30.859375 57.171875 28.375 50.390625 
z
" id="ArialMT-65"/>
     <path d="M 40.4375 6.390625 
Q 35.546875 2.25 31.03125 0.53125 
Q 26.515625 -1.171875 21.34375 -1.171875 
Q 12.796875 -1.171875 8.203125 3 
Q 3.609375 7.171875 3.609375 13.671875 
Q 3.609375 17.484375 5.34375 20.625 
Q 7.078125 23.78125 9.890625 25.6875 
Q 12.703125 27.59375 16.21875 28.5625 
Q 18.796875 29.25 24.03125 29.890625 
Q 34.671875 31.15625 39.703125 32.90625 
Q 39.75 34.71875 39.75 35.203125 
Q 39.75 40.578125 37.25 42.78125 
Q 33.890625 45.75 27.25 45.75 
Q 21.046875 45.75 18.09375 43.578125 
Q 15.140625 41.40625 13.71875 35.890625 
L 5.125 37.0625 
Q 6.296875 42.578125 8.984375 45.96875 
Q 11.671875 49.359375 16.75 51.1875 
Q 21.828125 53.03125 28.515625 53.03125 
Q 35.15625 53.03125 39.296875 51.46875 
Q 43.453125 49.90625 45.40625 47.53125 
Q 47.359375 45.171875 48.140625 41.546875 
Q 48.578125 39.3125 48.578125 33.453125 
L 48.578125 21.734375 
Q 48.578125 9.46875 49.140625 6.21875 
Q 49.703125 2.984375 51.375 0 
L 42.1875 0 
Q 40.828125 2.734375 40.4375 6.390625 
z
M 39.703125 26.03125 
Q 34.90625 24.078125 25.34375 22.703125 
Q 19.921875 21.921875 17.671875 20.9375 
Q 15.4375 19.96875 14.203125 18.09375 
Q 12.984375 16.21875 12.984375 13.921875 
Q 12.984375 10.40625 15.640625 8.0625 
Q 18.3125 5.71875 23.4375 5.71875 
Q 28.515625 5.71875 32.46875 7.9375 
Q 36.421875 10.15625 38.28125 14.015625 
Q 39.703125 17 39.703125 22.796875 
z
M 22.609375 58.296875 
L 29.109375 71.96875 
L 40.625 71.96875 
L 29.890625 58.296875 
z
" id="ArialMT-225"/>
     <path d="M 8.203125 0 
L 8.203125 71.578125 
L 56.5 71.578125 
L 56.5 63.140625 
L 17.671875 63.140625 
L 17.671875 40.96875 
L 51.265625 40.96875 
L 51.265625 32.515625 
L 17.671875 32.515625 
L 17.671875 0 
z
" id="ArialMT-70"/>
     <path d="M 9.328125 0 
L 9.328125 71.578125 
L 18.796875 71.578125 
L 18.796875 0 
z
" id="ArialMT-73"/>
     <path d="M 7.328125 0 
L 7.328125 71.578125 
L 34.1875 71.578125 
Q 42.390625 71.578125 47.34375 69.40625 
Q 52.296875 67.234375 55.09375 62.71875 
Q 57.90625 58.203125 57.90625 53.265625 
Q 57.90625 48.6875 55.421875 44.625 
Q 52.9375 40.578125 47.90625 38.09375 
Q 54.390625 36.1875 57.875 31.59375 
Q 61.375 27 61.375 20.75 
Q 61.375 15.71875 59.25 11.390625 
Q 57.125 7.078125 54 4.734375 
Q 50.875 2.390625 46.15625 1.1875 
Q 41.453125 0 34.625 0 
z
M 16.796875 41.5 
L 32.28125 41.5 
Q 38.578125 41.5 41.3125 42.328125 
Q 44.921875 43.40625 46.75 45.890625 
Q 48.578125 48.390625 48.578125 52.15625 
Q 48.578125 55.71875 46.875 58.421875 
Q 45.171875 61.140625 41.984375 62.140625 
Q 38.8125 63.140625 31.109375 63.140625 
L 16.796875 63.140625 
z
M 16.796875 8.453125 
L 34.625 8.453125 
Q 39.203125 8.453125 41.0625 8.796875 
Q 44.34375 9.375 46.53125 10.734375 
Q 48.734375 12.109375 50.140625 14.71875 
Q 51.5625 17.328125 51.5625 20.75 
Q 51.5625 24.75 49.515625 27.703125 
Q 47.46875 30.671875 43.828125 31.859375 
Q 40.1875 33.0625 33.34375 33.0625 
L 16.796875 33.0625 
z
" id="ArialMT-66"/>
     <path d="M 7.859375 0 
L 7.859375 71.578125 
L 39.59375 71.578125 
Q 49.171875 71.578125 54.140625 69.640625 
Q 59.125 67.71875 62.109375 62.828125 
Q 65.09375 57.953125 65.09375 52.046875 
Q 65.09375 44.4375 60.15625 39.203125 
Q 55.21875 33.984375 44.921875 32.5625 
Q 48.6875 30.765625 50.640625 29 
Q 54.78125 25.203125 58.5 19.484375 
L 70.953125 0 
L 59.03125 0 
L 49.5625 14.890625 
Q 45.40625 21.34375 42.71875 24.75 
Q 40.046875 28.171875 37.921875 29.53125 
Q 35.796875 30.90625 33.59375 31.453125 
Q 31.984375 31.78125 28.328125 31.78125 
L 17.328125 31.78125 
L 17.328125 0 
z
M 17.328125 39.984375 
L 37.703125 39.984375 
Q 44.1875 39.984375 47.84375 41.328125 
Q 51.515625 42.671875 53.421875 45.625 
Q 55.328125 48.578125 55.328125 52.046875 
Q 55.328125 57.125 51.640625 60.390625 
Q 47.953125 63.671875 39.984375 63.671875 
L 17.328125 63.671875 
z
" id="ArialMT-82"/>
    </defs>
    <use xlink:href="#ArialMT-65"/>
    <use x="66.699219" xlink:href="#ArialMT-110"/>
    <use x="122.314453" xlink:href="#ArialMT-225"/>
    <use x="177.929688" xlink:href="#ArialMT-108"/>
    <use x="200.146484" xlink:href="#ArialMT-105"/>
    <use x="222.363281" xlink:href="#ArialMT-115"/>
    <use x="272.363281" xlink:href="#ArialMT-101"/>
    <use x="327.978516" xlink:href="#ArialMT-32"/>
    <use x="355.761719" xlink:href="#ArialMT-70"/>
    <use x="416.845703" xlink:href="#ArialMT-73"/>
    <use x="444.628906" xlink:href="#ArialMT-78"/>
    <use x="516.845703" xlink:href="#ArialMT-66"/>
    <use x="583.544922" xlink:href="#ArialMT-82"/>
    <use x="655.761719" xlink:href="#ArialMT-65"/>
    <use x="716.960938" xlink:href="#ArialMT-32"/>
    <use x="744.744141" xlink:href="#ArialMT-50"/>
    <use x="800.359375" xlink:href="#ArialMT-48"/>
    <use x="855.974609" xlink:href="#ArialMT-49"/>
    <use x="911.589844" xlink:href="#ArialMT-55"/>
   </g>
  </g>
 </g>
 <defs>
  <clipPath id="p305cdb1dc2">
   <rect height="407.7" width="837" x="135" y="64.8"/>
  </clipPath>
 </defs>
</svg>
